<svg width="18.000000" height="19.000000" viewBox="0 0 18 19" fill="none" xmlns="http://www.w3.org/2000/svg" xmlns:xlink="http://www.w3.org/1999/xlink">
	<desc>
			Created with Pixso.
	</desc>
	<defs/>
	<path id="Vector" d="M17.58 1.82L7.4 12C7.15 12.26 6.81 12.38 6.47 12.38C6.13 12.38 5.8 12.26 5.54 12L-0.04 6.42C-0.22 6.24 -0.22 5.96 -0.04 5.78L1.18 4.56C1.36 4.38 1.65 4.38 1.82 4.56L6.18 8.92C6.34 9.08 6.6 9.08 6.76 8.92L15.72 -0.04C15.89 -0.22 16.18 -0.22 16.35 -0.04L17.58 1.18C17.75 1.36 17.75 1.65 17.58 1.82Z" fill="#35E1AD" fill-opacity="1.000000" fill-rule="nonzero"/>
	<path id="Vector" d="M17.58 7.6L7.4 17.78C7.15 18.03 6.81 18.16 6.47 18.16C6.13 18.16 5.8 18.03 5.54 17.78L-0.04 12.2C-0.22 12.02 -0.22 11.73 -0.04 11.56L1.18 10.33C1.36 10.16 1.65 10.16 1.82 10.33L6.18 14.7C6.34 14.85 6.6 14.85 6.76 14.7L15.72 5.74C15.89 5.56 16.18 5.56 16.35 5.74L17.58 6.96C17.75 7.14 17.75 7.42 17.58 7.6Z" fill="#35E1AD" fill-opacity="1.000000" fill-rule="nonzero"/>
	<path id="Vector" d="M17.58 1.18L16.35 -0.04C16.18 -0.22 15.89 -0.22 15.72 -0.04L15.41 0.27C15.52 0.27 15.63 0.32 15.71 0.4L16.46 1.18C16.64 1.36 16.64 1.65 16.46 1.82L6.54 11.73C6.3 11.97 5.99 12.1 5.67 12.11C5.91 12.29 6.19 12.38 6.47 12.38C6.81 12.38 7.15 12.26 7.4 12L17.58 1.82C17.75 1.65 17.75 1.36 17.58 1.18Z" fill="#35E1AD" fill-opacity="1.000000" fill-rule="nonzero"/>
	<path id="Vector" d="M6.76 8.92L6.28 9.39C6.08 9.59 5.76 9.59 5.56 9.39L1.24 5.02C1.13 4.91 0.99 4.87 0.85 4.89L1.18 4.56C1.36 4.38 1.65 4.38 1.82 4.56L6.18 8.92C6.34 9.08 6.6 9.08 6.76 8.92Z" fill="#35E1AD" fill-opacity="1.000000" fill-rule="nonzero"/>
	<path id="Vector" d="M6.76 14.7L6.3 15.16C6.11 15.34 5.81 15.34 5.62 15.16L1.23 10.84C1.11 10.72 0.95 10.68 0.8 10.72L1.18 10.33C1.36 10.16 1.65 10.16 1.82 10.33L6.18 14.7C6.34 14.85 6.6 14.85 6.76 14.7Z" fill="#35E1AD" fill-opacity="1.000000" fill-rule="nonzero"/>
	<path id="Vector" d="M17.58 6.96L16.35 5.74C16.18 5.56 15.89 5.56 15.72 5.74L15.37 6.08C15.5 6.07 15.63 6.11 15.73 6.21L16.46 6.96C16.64 7.14 16.64 7.42 16.46 7.6L6.57 17.56C6.34 17.79 6.04 17.92 5.74 17.94C5.96 18.09 6.22 18.16 6.47 18.16C6.81 18.16 7.15 18.03 7.4 17.78L17.58 7.6C17.75 7.42 17.75 7.14 17.58 6.96Z" fill="#35E1AD" fill-opacity="1.000000" fill-rule="nonzero"/>
</svg>
