<svg width="20.000000" height="20.000000" viewBox="0 0 20 20" fill="none" xmlns="http://www.w3.org/2000/svg" xmlns:xlink="http://www.w3.org/1999/xlink">
	<desc>
			Created with Pixso.
	</desc>
	<defs>
		<clipPath id="clip4_4761">
			<rect id="fi-rr-angle-double-small-right" width="20.000000" height="20.000000" transform="translate(19.500000 0.000000) rotate(90.000000)" fill="white" fill-opacity="0"/>
		</clipPath>
	</defs>
	<rect id="fi-rr-angle-double-small-right" width="20.000000" height="20.000000" transform="translate(19.500000 0.000000) rotate(90.000000)" fill="#FFFFFF" fill-opacity="0"/>
	<g clip-path="url(#clip4_4761)">
		<path id="Vector" d="M3.66 10.91C3.66 10.75 3.71 10.59 3.8 10.45C3.9 10.31 4.03 10.21 4.18 10.14C4.33 10.08 4.5 10.07 4.66 10.1C4.82 10.13 4.97 10.21 5.09 10.33L8.9 14.16C8.98 14.24 9.07 14.3 9.17 14.34C9.28 14.39 9.38 14.41 9.5 14.41C9.61 14.41 9.71 14.39 9.82 14.34C9.92 14.3 10.01 14.24 10.09 14.16L13.9 10.33C13.98 10.25 14.07 10.19 14.17 10.15C14.28 10.1 14.38 10.08 14.5 10.08C14.61 10.08 14.71 10.1 14.82 10.15C14.92 10.19 15.01 10.25 15.09 10.33C15.24 10.48 15.33 10.7 15.33 10.92C15.33 11.14 15.24 11.35 15.09 11.5L11.26 15.33C10.79 15.8 10.16 16.06 9.5 16.06C8.83 16.06 8.2 15.8 7.73 15.33L3.9 11.5C3.83 11.43 3.76 11.33 3.72 11.23C3.68 11.13 3.66 11.02 3.66 10.91Z" fill="#FFFFFF" fill-opacity="1.000000" fill-rule="nonzero"/>
		<path id="Vector" d="M3.66 5.08C3.66 4.91 3.71 4.75 3.8 4.62C3.9 4.48 4.03 4.37 4.18 4.31C4.33 4.25 4.5 4.23 4.66 4.27C4.82 4.3 4.97 4.38 5.09 4.5L9.5 8.9L13.9 4.5C13.98 4.42 14.07 4.35 14.17 4.31C14.28 4.27 14.38 4.25 14.5 4.25C14.61 4.25 14.71 4.27 14.82 4.31C14.92 4.35 15.01 4.42 15.09 4.5C15.24 4.65 15.33 4.86 15.33 5.08C15.33 5.3 15.24 5.51 15.09 5.67L10.09 10.67C10.01 10.75 9.92 10.81 9.82 10.85C9.71 10.89 9.61 10.92 9.5 10.92C9.38 10.92 9.28 10.89 9.17 10.85C9.07 10.81 8.98 10.75 8.9 10.67L3.9 5.67C3.83 5.59 3.76 5.5 3.72 5.4C3.68 5.3 3.66 5.19 3.66 5.08Z" fill="#FFFFFF" fill-opacity="1.000000" fill-rule="nonzero"/>
	</g>
</svg>
