<svg width="16.000000" height="3.000000" viewBox="0 0 16 3" fill="none" xmlns="http://www.w3.org/2000/svg" xmlns:xlink="http://www.w3.org/1999/xlink">
	<desc>
			Created with Pixso.
	</desc>
	<defs/>
	<path id="Icon" d="M1.5 2.5C2.32 2.5 3 1.82 3 1C3 0.17 2.32 -0.5 1.5 -0.5C0.67 -0.5 0 0.17 0 1C0 1.82 0.67 2.5 1.5 2.5ZM8 2.5C8.82 2.5 9.5 1.82 9.5 1C9.5 0.17 8.82 -0.5 8 -0.5C7.17 -0.5 6.5 0.17 6.5 1C6.5 1.82 7.17 2.5 8 2.5ZM14.5 2.5C15.32 2.5 16 1.82 16 1C16 0.17 15.32 -0.5 14.5 -0.5C13.67 -0.5 13 0.17 13 1C13 1.82 13.67 2.5 14.5 2.5Z" fill="#666668" fill-opacity="1.000000" fill-rule="evenodd"/>
</svg>
