<svg width="16.000000" height="16.000000" viewBox="0 0 16 16" fill="none" xmlns="http://www.w3.org/2000/svg" xmlns:xlink="http://www.w3.org/1999/xlink">
	<desc>
			Created with Pixso.
	</desc>
	<defs>
		<clipPath id="clip7_15018">
			<rect id="fi-rr-plus" width="16.000000" height="16.000000" fill="white" fill-opacity="0"/>
		</clipPath>
		<linearGradient id="paint_linear_7_15017_0" x1="0.645000" y1="2.550331" x2="15.460000" y2="2.550331" gradientUnits="userSpaceOnUse">
			<stop stop-color="#5034FF"/>
			<stop offset="1.000000" stop-color="#35E1AD"/>
		</linearGradient>
	</defs>
	<rect id="fi-rr-plus" width="16.000000" height="16.000000" fill="#FFFFFF" fill-opacity="0"/>
	<g clip-path="url(#clip7_15018)">
		<path id="Vector" d="M15.33 7.33L8.66 7.33L8.66 0.66C8.66 0.48 8.59 0.32 8.47 0.19C8.34 0.07 8.17 0 8 0L8 0C7.82 0 7.65 0.07 7.52 0.19C7.4 0.32 7.33 0.48 7.33 0.66L7.33 7.33L0.66 7.33C0.48 7.33 0.32 7.4 0.19 7.52C0.07 7.65 0 7.82 0 8L0 8C0 8.17 0.07 8.34 0.19 8.47C0.32 8.59 0.48 8.66 0.66 8.66L7.33 8.66L7.33 15.33C7.33 15.51 7.4 15.67 7.52 15.8C7.65 15.92 7.82 16 8 16C8.17 16 8.34 15.92 8.47 15.8C8.59 15.67 8.66 15.51 8.66 15.33L8.66 8.66L15.33 8.66C15.51 8.66 15.67 8.59 15.8 8.47C15.92 8.34 16 8.17 16 8C16 7.82 15.92 7.65 15.8 7.52C15.67 7.4 15.51 7.33 15.33 7.33Z" fill="url(#paint_linear_7_15017_0)" fill-opacity="1.000000" fill-rule="nonzero"/>
	</g>
</svg>
