<svg width="22.000000" height="22.000000" viewBox="0 0 22 22" fill="none" xmlns="http://www.w3.org/2000/svg" xmlns:xlink="http://www.w3.org/1999/xlink">
	<desc>
			Created with Pixso.
	</desc>
	<defs>
		<clipPath id="clip2_8990">
			<rect id="calendar (3) 1" width="22.000000" height="22.000000" transform="translate(-0.750000 -0.500000)" fill="white" fill-opacity="0"/>
		</clipPath>
	</defs>
	<rect id="calendar (3) 1" width="22.000000" height="22.000000" transform="translate(-0.750000 -0.500000)" fill="#FFFFFF" fill-opacity="0"/>
	<g clip-path="url(#clip2_8990)">
		<path id="Vector" d="M5.2 0.87C5.71 0.87 6.12 1.28 6.12 1.79L6.12 2.7C6.12 3.21 5.71 3.62 5.2 3.62C4.7 3.62 4.29 3.21 4.29 2.7L4.29 1.79C4.29 1.28 4.7 0.87 5.2 0.87Z" fill="#FFFFFF" fill-opacity="1.000000" fill-rule="evenodd"/>
		<path id="Vector" d="M15.29 0.87C15.79 0.87 16.2 1.28 16.2 1.79L16.2 2.7C16.2 3.21 15.79 3.62 15.29 3.62C14.78 3.62 14.37 3.21 14.37 2.7L14.37 1.79C14.37 1.28 14.78 0.87 15.29 0.87Z" fill="#FFFFFF" fill-opacity="1.000000" fill-rule="evenodd"/>
		<path id="Vector" d="M1.08 7.75L1.08 18.29C1.08 19.3 1.9 20.12 2.91 20.12L17.58 20.12C18.59 20.12 19.41 19.3 19.41 18.29L19.41 7.75L1.08 7.75ZM6.58 16.91C6.58 17.42 6.17 17.83 5.66 17.83L4.75 17.83C4.24 17.83 3.83 17.42 3.83 16.91L3.83 16C3.83 15.49 4.24 15.08 4.75 15.08L5.66 15.08C6.17 15.08 6.58 15.49 6.58 16L6.58 16.91ZM6.58 11.87C6.58 12.38 6.17 12.79 5.66 12.79L4.75 12.79C4.24 12.79 3.83 12.38 3.83 11.87L3.83 10.95C3.83 10.45 4.24 10.04 4.75 10.04L5.66 10.04C6.17 10.04 6.58 10.45 6.58 10.95L6.58 11.87ZM11.62 16.91C11.62 17.42 11.21 17.83 10.7 17.83L9.79 17.83C9.28 17.83 8.87 17.42 8.87 16.91L8.87 16C8.87 15.49 9.28 15.08 9.79 15.08L10.7 15.08C11.21 15.08 11.62 15.49 11.62 16L11.62 16.91ZM11.62 11.87C11.62 12.38 11.21 12.79 10.7 12.79L9.79 12.79C9.28 12.79 8.87 12.38 8.87 11.87L8.87 10.95C8.87 10.45 9.28 10.04 9.79 10.04L10.7 10.04C11.21 10.04 11.62 10.45 11.62 10.95L11.62 11.87ZM16.66 16.91C16.66 17.42 16.25 17.83 15.75 17.83L14.83 17.83C14.32 17.83 13.91 17.42 13.91 16.91L13.91 16C13.91 15.49 14.32 15.08 14.83 15.08L15.75 15.08C16.25 15.08 16.66 15.49 16.66 16L16.66 16.91ZM16.66 11.87C16.66 12.38 16.25 12.79 15.75 12.79L14.83 12.79C14.32 12.79 13.91 12.38 13.91 11.87L13.91 10.95C13.91 10.45 14.32 10.04 14.83 10.04L15.75 10.04C16.25 10.04 16.66 10.45 16.66 10.95L16.66 11.87Z" fill="#28A745" fill-opacity="1.000000" fill-rule="evenodd"/>
		<path id="Vector" d="M19.41 6.83L19.41 4.08C19.41 3.07 18.59 2.25 17.58 2.25L17.12 2.25L17.12 2.7C17.12 3.71 16.3 4.54 15.29 4.54C14.28 4.54 13.45 3.71 13.45 2.7L13.45 2.25L7.04 2.25L7.04 2.7C7.04 3.71 6.21 4.54 5.2 4.54C4.19 4.54 3.37 3.71 3.37 2.7L3.37 2.25L2.91 2.25C1.9 2.25 1.08 3.07 1.08 4.08L1.08 6.83L19.41 6.83Z" fill="#FFFFFF" fill-opacity="1.000000" fill-rule="nonzero"/>
	</g>
</svg>
