<svg width="13.000000" height="7.000000" viewBox="0 0 13 7" fill="none" xmlns="http://www.w3.org/2000/svg" xmlns:xlink="http://www.w3.org/1999/xlink">
	<desc>
			Created with Pixso.
	</desc>
	<defs/>
	<path id="Vector" d="M0.12 -1L11.29 -1C11.48 -1.01 11.68 -0.95 11.84 -0.84C12.01 -0.73 12.14 -0.57 12.21 -0.39C12.29 -0.2 12.31 0 12.27 0.19C12.23 0.39 12.14 0.57 12 0.71L6.41 6.29C6.22 6.47 5.96 6.58 5.7 6.58C5.44 6.58 5.18 6.47 5 6.29L-0.59 0.71C-0.74 0.57 -0.83 0.39 -0.87 0.19C-0.91 0 -0.89 -0.2 -0.81 -0.39C-0.74 -0.57 -0.61 -0.73 -0.44 -0.84C-0.28 -0.95 -0.08 -1.01 0.12 -1Z" fill="#FFFFFF" fill-opacity="1.000000" fill-rule="nonzero"/>
</svg>
