<svg width="13.000000" height="7.000000" viewBox="0 0 13 7" fill="none" xmlns="http://www.w3.org/2000/svg" xmlns:xlink="http://www.w3.org/1999/xlink">
	<desc>
			Created with Pixso.
	</desc>
	<defs/>
	<path id="Vector" d="M11.88 6.99L0.71 6.99C0.51 7 0.31 6.94 0.15 6.83C-0.02 6.72 -0.15 6.56 -0.22 6.38C-0.3 6.19 -0.32 5.99 -0.28 5.8C-0.24 5.6 -0.15 5.42 0 5.28L5.59 -0.3C5.77 -0.48 6.03 -0.59 6.29 -0.59C6.55 -0.59 6.81 -0.48 7 -0.3L12.59 5.28C12.73 5.42 12.82 5.6 12.86 5.8C12.9 5.99 12.88 6.19 12.8 6.38C12.73 6.56 12.6 6.72 12.43 6.83C12.27 6.94 12.07 7 11.88 6.99Z" fill="#FFFFFF" fill-opacity="1.000000" fill-rule="nonzero"/>
</svg>
