<svg width="15.000000" height="15.000000" viewBox="0 0 15 15" fill="none" xmlns="http://www.w3.org/2000/svg" xmlns:xlink="http://www.w3.org/1999/xlink">
	<desc>
			Created with Pixso.
	</desc>
	<defs/>
	<path id="Vector" d="M5.66 14.18C5.26 14.18 4.88 13.98 4.62 13.63L3.82 12.56C3.82 12.57 3.78 12.55 3.77 12.55L3.52 12.55C1.24 12.55 -0.17 11.93 -0.17 8.85L-0.17 6.19C-0.17 3.38 1.54 2.65 2.98 2.52C3.14 2.5 3.33 2.5 3.52 2.5L7.79 2.5C10.2 2.5 11.48 3.78 11.48 6.19L11.48 8.85C11.48 9.05 11.48 9.23 11.45 9.42C11.33 10.84 10.6 12.55 7.79 12.55L7.52 12.55L6.7 13.63C6.44 13.98 6.06 14.18 5.66 14.18ZM3.52 3.5C3.37 3.5 3.22 3.5 3.08 3.52C1.54 3.65 0.83 4.5 0.83 6.19L0.83 8.85C0.83 11.14 1.54 11.55 3.52 11.55L3.79 11.55C4.09 11.55 4.43 11.72 4.62 11.96L5.42 13.03C5.56 13.23 5.75 13.23 5.9 13.03L6.7 11.96C6.89 11.7 7.2 11.55 7.52 11.55L7.79 11.55C9.48 11.55 10.33 10.84 10.46 9.31C10.48 9.16 10.48 9.01 10.48 8.85L10.48 6.19C10.48 4.33 9.65 3.5 7.79 3.5L3.52 3.5Z" fill="#747888" fill-opacity="1.000000" fill-rule="nonzero"/>
	<path id="Vector" d="M5.66 8.46C5.28 8.46 4.99 8.16 4.99 7.79C4.99 7.42 5.29 7.12 5.66 7.12C6.02 7.12 6.32 7.42 6.32 7.79C6.32 8.16 6.03 8.46 5.66 8.46Z" fill="#747888" fill-opacity="1.000000" fill-rule="nonzero"/>
	<path id="Vector" d="M7.79 8.46C7.41 8.46 7.12 8.16 7.12 7.79C7.12 7.42 7.42 7.12 7.79 7.12C8.15 7.12 8.45 7.42 8.45 7.79C8.45 8.16 8.15 8.46 7.79 8.46Z" fill="#747888" fill-opacity="1.000000" fill-rule="nonzero"/>
	<path id="Vector" d="M3.53 8.46C3.15 8.46 2.86 8.16 2.86 7.79C2.86 7.42 3.16 7.12 3.53 7.12C3.89 7.12 4.19 7.42 4.19 7.79C4.19 8.16 3.89 8.46 3.53 8.46Z" fill="#747888" fill-opacity="1.000000" fill-rule="nonzero"/>
	<path id="Vector" d="M10.96 9.85C10.82 9.85 10.69 9.8 10.6 9.7C10.49 9.59 10.44 9.44 10.46 9.29C10.48 9.16 10.49 9.01 10.49 8.85L10.49 6.19C10.49 4.33 9.66 3.5 7.8 3.5L3.53 3.5C3.38 3.5 3.23 3.5 3.09 3.51C2.94 3.53 2.79 3.48 2.68 3.38C2.58 3.27 2.52 3.13 2.53 2.98C2.65 1.54 3.39 -0.17 6.2 -0.17L10.46 -0.17C12.88 -0.17 14.16 1.11 14.16 3.52L14.16 6.19C14.16 9 12.44 9.73 11 9.85C10.98 9.85 10.97 9.85 10.96 9.85ZM3.61 2.5L7.79 2.5C10.2 2.5 11.48 3.77 11.48 6.19L11.48 8.77C12.62 8.49 13.15 7.66 13.15 6.19L13.15 3.52C13.15 1.66 12.32 0.83 10.46 0.83L6.19 0.83C4.72 0.83 3.9 1.36 3.61 2.5Z" fill="#747888" fill-opacity="1.000000" fill-rule="nonzero"/>
</svg>
