<svg width="16.000000" height="19.000000" viewBox="0 0 16 19" fill="none" xmlns="http://www.w3.org/2000/svg" xmlns:xlink="http://www.w3.org/1999/xlink">
	<desc>
			Created with Pixso.
	</desc>
	<defs/>
	<path id="Vector" d="M14.34 12.07C13.85 13.41 13.1 14.57 12.12 15.52C11.01 16.61 9.55 17.47 7.79 18.09C7.74 18.11 7.68 18.12 7.61 18.14C7.54 18.15 7.45 18.16 7.37 18.16L7.36 18.16C7.27 18.16 7.18 18.15 7.1 18.14C7.04 18.12 6.98 18.11 6.92 18.09C5.16 17.47 3.7 16.61 2.59 15.52C1.61 14.57 0.86 13.41 0.37 12.07C-0.52 9.65 -0.47 6.97 -0.43 4.82L-0.43 4.79C-0.42 4.61 -0.42 4.42 -0.41 4.22C-0.4 3.21 0.4 2.37 1.42 2.31C3.52 2.2 5.15 1.51 6.55 0.15L6.56 0.14C6.79 -0.07 7.08 -0.18 7.37 -0.17C7.65 -0.17 7.93 -0.06 8.15 0.14L8.17 0.15C9.56 1.51 11.19 2.2 13.3 2.31C14.31 2.37 15.11 3.21 15.13 4.22C15.13 4.43 15.14 4.61 15.14 4.79L15.14 4.8C15.19 6.96 15.24 9.64 14.34 12.07Z" fill="#084BF7" fill-opacity="1.000000" fill-rule="nonzero"/>
	<path id="Vector" d="M11.93 8.99C11.93 11.51 9.88 13.56 7.37 13.56L7.36 13.56C4.84 13.56 2.79 11.51 2.79 8.99C2.79 6.48 4.84 4.43 7.36 4.43L7.37 4.43C9.88 4.43 11.93 6.48 11.93 8.99Z" fill="#FFFFFF" fill-opacity="1.000000" fill-rule="nonzero"/>
	<path id="Vector" d="M9.43 8.34L7.37 10.4L6.93 10.84C6.82 10.95 6.69 11 6.55 11C6.41 11 6.27 10.95 6.17 10.84L5.21 9.88C5 9.67 5 9.33 5.21 9.12C5.42 8.91 5.76 8.91 5.97 9.12L6.55 9.7L8.67 7.58C8.88 7.37 9.22 7.37 9.43 7.58C9.64 7.79 9.64 8.13 9.43 8.34Z" fill="#084BF7" fill-opacity="1.000000" fill-rule="nonzero"/>
</svg>
