<svg width="16.000000" height="16.000000" viewBox="0 0 16 16" fill="none" xmlns="http://www.w3.org/2000/svg" xmlns:xlink="http://www.w3.org/1999/xlink">
	<desc>
			Created with Pixso.
	</desc>
	<defs>
		<clipPath id="clip4_17583">
			<rect id="fi-rr-check" width="11.000000" height="11.000000" transform="translate(2.500000 2.500000)" fill="white" fill-opacity="0"/>
		</clipPath>
	</defs>
	<rect id="Tips-near-items" rx="8.000000" width="16.000000" height="16.000000" fill="#28A745" fill-opacity="1.000000"/>
	<rect id="fi-rr-check" width="11.000000" height="11.000000" transform="translate(2.500000 2.500000)" fill="#FFFFFF" fill-opacity="0"/>
	<g clip-path="url(#clip4_17583)">
		<path id="Vector" d="M12.72 4.53L6.39 10.86C6.35 10.9 6.3 10.94 6.24 10.96C6.19 10.98 6.13 10.99 6.07 10.99C6.01 10.99 5.95 10.98 5.89 10.96C5.83 10.94 5.78 10.9 5.74 10.86L3.29 8.41C3.25 8.36 3.2 8.33 3.14 8.31C3.09 8.28 3.03 8.27 2.97 8.27C2.91 8.27 2.85 8.28 2.79 8.31C2.74 8.33 2.69 8.36 2.64 8.41C2.6 8.45 2.57 8.5 2.54 8.56C2.52 8.61 2.51 8.67 2.51 8.73C2.51 8.79 2.52 8.85 2.54 8.91C2.57 8.96 2.6 9.01 2.64 9.06L5.09 11.51C5.35 11.76 5.7 11.91 6.07 11.91C6.43 11.91 6.78 11.76 7.04 11.51L13.37 5.17C13.42 5.13 13.45 5.08 13.47 5.03C13.5 4.97 13.51 4.91 13.51 4.85C13.51 4.79 13.5 4.73 13.47 4.67C13.45 4.62 13.42 4.57 13.37 4.53C13.33 4.48 13.28 4.45 13.23 4.43C13.17 4.4 13.11 4.39 13.05 4.39C12.99 4.39 12.93 4.4 12.87 4.43C12.82 4.45 12.77 4.48 12.72 4.53Z" fill="#FFFFFF" fill-opacity="1.000000" fill-rule="nonzero"/>
	</g>
</svg>
