<svg width="15.000000" height="8.000000" viewBox="0 0 15 8" fill="none" xmlns="http://www.w3.org/2000/svg" xmlns:xlink="http://www.w3.org/1999/xlink">
	<desc>
			Created with Pixso.
	</desc>
	<defs/>
	<path id="Vector" d="M13.7 0.2C13.61 0.11 13.5 0.04 13.38 -0.01C13.26 -0.06 13.13 -0.09 12.99 -0.09C12.86 -0.09 12.73 -0.06 12.61 -0.01C12.49 0.04 12.38 0.11 12.28 0.2L7.7 4.78C7.61 4.88 7.5 4.95 7.38 5C7.26 5.05 7.13 5.08 6.99 5.08C6.86 5.08 6.73 5.05 6.61 5C6.49 4.95 6.38 4.88 6.28 4.78L1.7 0.2C1.61 0.11 1.5 0.04 1.38 -0.01C1.26 -0.06 1.13 -0.09 0.99 -0.09C0.86 -0.09 0.73 -0.06 0.61 -0.01C0.49 0.04 0.38 0.11 0.28 0.2C0.1 0.39 -0.01 0.65 -0.01 0.91C-0.01 1.17 0.1 1.43 0.28 1.62L4.87 6.2C5.44 6.77 6.2 7.08 6.99 7.08C7.79 7.08 8.55 6.77 9.11 6.2L13.7 1.62C13.89 1.43 14 1.17 14 0.91C14 0.65 13.89 0.39 13.7 0.2Z" fill="#909399" fill-opacity="1.000000" fill-rule="nonzero"/>
</svg>
