<svg width="40.000000" height="40.000000" viewBox="0 0 40 40" fill="none" xmlns="http://www.w3.org/2000/svg" xmlns:xlink="http://www.w3.org/1999/xlink">
	<desc>
			Created with Pixso.
	</desc>
	<defs>
		<clipPath id="clip3_19613">
			<rect id="fi-rr-angle-small-left" width="24.000000" height="24.000000" transform="translate(32.000000 32.000000) rotate(180.000000)" fill="white" fill-opacity="0"/>
		</clipPath>
	</defs>
	<rect id="Frame 46164" rx="20.000000" width="40.000000" height="40.000000" fill="#363A40" fill-opacity="1.000000"/>
	<rect id="fi-rr-angle-small-left" width="24.000000" height="24.000000" transform="translate(32.000000 32.000000) rotate(180.000000)" fill="#FFFFFF" fill-opacity="0"/>
	<g clip-path="url(#clip3_19613)">
		<path id="Vector" d="M21.39 19.29C21.49 19.38 21.56 19.49 21.61 19.61C21.66 19.73 21.69 19.86 21.69 20C21.69 20.13 21.66 20.26 21.61 20.38C21.56 20.5 21.49 20.61 21.39 20.71L16.81 25.29C16.71 25.38 16.64 25.49 16.59 25.61C16.54 25.73 16.51 25.86 16.51 26C16.51 26.13 16.54 26.26 16.59 26.38C16.64 26.5 16.71 26.61 16.81 26.71C16.99 26.89 17.25 27 17.51 27C17.77 27 18.03 26.89 18.22 26.71L22.81 22.11C23.37 21.55 23.68 20.79 23.68 20C23.68 19.2 23.37 18.44 22.81 17.87L18.22 13.29C18.03 13.1 17.78 13 17.52 13C17.38 12.99 17.25 13.02 17.13 13.07C17.01 13.12 16.9 13.19 16.81 13.29C16.71 13.38 16.64 13.49 16.59 13.61C16.54 13.73 16.51 13.86 16.51 14C16.51 14.13 16.54 14.26 16.59 14.38C16.64 14.5 16.71 14.61 16.81 14.71L21.39 19.29Z" fill="#FFFFFF" fill-opacity="1.000000" fill-rule="nonzero"/>
	</g>
</svg>
