<svg width="20.000000" height="20.000000" viewBox="0 0 20 20" fill="none" xmlns="http://www.w3.org/2000/svg" xmlns:xlink="http://www.w3.org/1999/xlink">
	<desc>
			Created with Pixso.
	</desc>
	<defs/>
	<path id="Vector" d="M19.92 9.71L16.08 1.73C15.91 1.38 15.49 1.21 15.12 1.35C14.58 1.55 14.14 1.66 13.71 1.72C12.51 1.89 11.22 1.63 10.09 1.01C8.67 0.19 7.07 -0.14 5.44 0.04C4.03 0.2 2.71 0.74 1.61 1.61L1.41 1.19C1.39 1.17 1.38 1.15 1.36 1.13C1.39 1.05 1.41 0.96 1.41 0.87C1.41 0.48 1.09 0.16 0.7 0.16C0.31 0.16 0 0.48 0 0.87C0 1.2 0.22 1.47 0.52 1.55C0.53 1.57 0.54 1.59 0.54 1.61L9.13 19.46C9.21 19.63 9.38 19.73 9.56 19.73C9.63 19.73 9.7 19.72 9.77 19.68C10 19.57 10.1 19.29 9.99 19.05L6.11 10.98C8.24 9.21 11.24 8.94 13.67 10.35C14.55 10.85 15.54 11.15 16.55 11.22C16.7 11.23 16.85 11.23 17 11.23C17.86 11.23 18.72 11.07 19.52 10.75C19.71 10.67 19.87 10.51 19.94 10.31C20.02 10.12 20.01 9.89 19.92 9.71ZM16.89 10.28L15.67 7.72C15.73 7.72 15.8 7.72 15.87 7.72C16.51 7.72 17.16 7.62 17.77 7.42L18.98 9.93C18.3 10.18 17.59 10.3 16.89 10.28ZM11.04 8.54L9.82 5.97C10.83 6.06 11.83 6.36 12.75 6.89C12.77 6.9 12.79 6.91 12.81 6.92L14.01 9.44C13.08 8.94 12.07 8.63 11.04 8.54ZM5.53 3.55C6.45 3.23 7.44 3.1 8.42 3.17L9.72 5.91C8.74 5.84 7.76 5.97 6.83 6.29L5.53 3.55ZM9.62 1.84C9.62 1.84 9.62 1.84 9.62 1.84L9.62 1.84C9.94 2.01 10.26 2.16 10.59 2.29L11.43 4.04C10.49 3.51 9.48 3.2 8.45 3.12L7.47 1.05C8.21 1.18 8.94 1.44 9.62 1.84ZM11.56 4.17C12.34 4.59 13.21 4.85 14.1 4.91C14.16 4.91 14.21 4.91 14.27 4.92L15.58 7.66C14.63 7.61 13.7 7.35 12.85 6.87L11.56 4.17ZM13.84 2.67C14.29 2.6 14.76 2.49 15.3 2.3L16.4 4.58C15.71 4.8 15.01 4.89 14.31 4.87L13.28 2.72C13.47 2.71 13.66 2.69 13.84 2.67ZM4.36 1.23L5.45 3.52C4.63 3.81 3.85 4.26 3.16 4.86L2.03 2.49C2.73 1.91 3.52 1.48 4.36 1.23ZM4.53 7.7C5.21 7.11 5.98 6.66 6.81 6.36L8 8.87C7.16 9.14 6.38 9.56 5.68 10.1L4.53 7.7Z" fill="#14F647" fill-opacity="1.000000" fill-rule="nonzero"/>
</svg>
