<svg width="20.000000" height="20.000000" viewBox="0 0 20 20" fill="none" xmlns="http://www.w3.org/2000/svg" xmlns:xlink="http://www.w3.org/1999/xlink">
	<desc>
			Created with Pixso.
	</desc>
	<defs>
		<clipPath id="clip4_13768">
			<rect id="Property 1=bullseye" width="20.000000" height="20.000000" fill="white" fill-opacity="0"/>
		</clipPath>
	</defs>
	<rect id="Property 1=bullseye" width="20.000000" height="20.000000" fill="#FFFFFF" fill-opacity="0"/>
	<g clip-path="url(#clip4_13768)">
		<path id="Vector" d="M9.09 12.27C9.84 12.27 10.45 11.66 10.45 10.9C10.45 10.15 9.84 9.54 9.09 9.54C8.33 9.54 7.72 10.15 7.72 10.9C7.72 11.66 8.33 12.27 9.09 12.27Z" fill="#FFA300" fill-opacity="1.000000" fill-rule="nonzero"/>
		<path id="Vector" d="M12.6 8.6L9.62 11.56L8.43 10.37L11.4 7.4L12.6 8.6Z" fill="#FFA300" fill-opacity="1.000000" fill-rule="evenodd"/>
		<path id="Vector" d="M15.06 0.89C15.37 1.02 15.58 1.33 15.58 1.67L15.58 4.41L18.32 4.41C18.66 4.41 18.97 4.62 19.1 4.93C19.23 5.25 19.16 5.61 18.91 5.85L16.18 8.59C16.02 8.75 15.8 8.84 15.58 8.84L12 8.84C11.53 8.84 11.15 8.46 11.15 7.99L11.15 4.41C11.15 4.19 11.24 3.97 11.4 3.81L14.14 1.08C14.38 0.83 14.74 0.76 15.06 0.89ZM12.84 4.76L12.84 7.15L15.23 7.15L16.28 6.1L14.74 6.1C14.27 6.1 13.89 5.72 13.89 5.25L13.89 3.71L12.84 4.76Z" fill="#FFA300" fill-opacity="1.000000" fill-rule="evenodd"/>
		<path id="Vector" d="M5.99 7.68C6.86 6.81 8.04 6.32 9.27 6.32L9.28 8.01C8.49 8.01 7.74 8.32 7.19 8.88C6.63 9.43 6.32 10.18 6.32 10.96C6.32 11.75 6.63 12.5 7.18 13.05C7.74 13.61 8.49 13.92 9.27 13.92L9.28 13.92C9.66 13.92 10.05 13.84 10.41 13.7C10.77 13.55 11.09 13.33 11.37 13.06C11.64 12.78 11.86 12.46 12.01 12.1C12.16 11.74 12.23 11.35 12.23 10.97L13.92 10.96C13.92 11.57 13.8 12.18 13.57 12.74C13.34 13.31 12.99 13.82 12.56 14.25C12.13 14.68 11.62 15.03 11.05 15.26C10.49 15.49 9.88 15.61 9.27 15.61C8.04 15.61 6.86 15.12 5.99 14.25C5.12 13.38 4.63 12.2 4.63 10.96L4.63 10.96C4.63 9.73 5.12 8.55 5.99 7.68ZM9.27 15.61C9.27 15.61 9.27 15.61 9.27 15.61L9.27 14.76L9.27 15.61C9.27 15.61 9.27 15.61 9.27 15.61Z" fill="#FF2742" fill-opacity="1.000000" fill-rule="evenodd"/>
		<path id="Vector" d="M3.3 4.99C4.89 3.41 7.03 2.52 9.27 2.52L9.27 4.21C7.48 4.21 5.76 4.92 4.5 6.19C3.23 7.45 2.52 9.17 2.52 10.96C2.52 12.76 3.23 14.47 4.5 15.74C5.76 17.01 7.48 17.72 9.27 17.72C11.07 17.72 12.79 17.01 14.05 15.74C15.32 14.47 16.03 12.76 16.03 10.96L17.72 10.96C17.72 13.2 16.83 15.35 15.25 16.94C13.66 18.52 11.51 19.41 9.27 19.41C7.03 19.41 4.89 18.52 3.3 16.94C1.72 15.35 0.83 13.2 0.83 10.96C0.83 8.72 1.72 6.58 3.3 4.99Z" fill="#FF2742" fill-opacity="1.000000" fill-rule="evenodd"/>
	</g>
</svg>
