<svg width="13.000000" height="11.000000" viewBox="0 0 13 11" fill="none" xmlns="http://www.w3.org/2000/svg" xmlns:xlink="http://www.w3.org/1999/xlink">
	<desc>
			Created with Pixso.
	</desc>
	<defs/>
	<path id="Vector" d="M12.72 4.59C11.24 1.47 9 -0.1 6 -0.1C2.99 -0.1 0.75 1.47 -0.73 4.59C-0.79 4.72 -0.82 4.86 -0.82 5C-0.82 5.13 -0.79 5.27 -0.73 5.4C0.75 8.52 2.99 10.09 6 10.09C9 10.09 11.24 8.52 12.72 5.4C12.84 5.14 12.84 4.85 12.72 4.59ZM6 8.96C3.47 8.96 1.63 7.69 0.33 5C1.63 2.3 3.47 1.03 6 1.03C8.52 1.03 10.36 2.3 11.66 5C10.36 7.69 8.52 8.96 6 8.96ZM5.93 2.25C4.41 2.25 3.18 3.48 3.18 5C3.18 6.51 4.41 7.75 5.93 7.75C7.45 7.75 8.68 6.51 8.68 5C8.68 3.48 7.45 2.25 5.93 2.25ZM5.93 6.75C4.97 6.75 4.18 5.96 4.18 5C4.18 4.03 4.97 3.25 5.93 3.25C6.9 3.25 7.68 4.03 7.68 5C7.68 5.96 6.9 6.75 5.93 6.75Z" fill="#BDBDBD" fill-opacity="1.000000" fill-rule="nonzero"/>
</svg>
