<svg width="11.000000" height="19.000000" viewBox="0 0 11 19" fill="none" xmlns="http://www.w3.org/2000/svg" xmlns:xlink="http://www.w3.org/1999/xlink">
	<desc>
			Created with Pixso.
	</desc>
	<defs/>
	<path id="Icon_11_" d="M2.59 9.99C2.52 9.99 0.94 9.99 0.22 9.99C-0.17 9.99 -0.29 9.84 -0.29 9.48C-0.29 8.52 -0.29 7.54 -0.29 6.58C-0.29 6.19 -0.14 6.07 0.22 6.07L2.59 6.07C2.59 6 2.59 4.61 2.59 3.96C2.59 3 2.76 2.09 3.24 1.25C3.74 0.39 4.46 -0.19 5.38 -0.53C5.98 -0.74 6.58 -0.84 7.22 -0.84L9.58 -0.84C9.91 -0.84 10.06 -0.69 10.06 -0.36L10.06 2.38C10.06 2.71 9.91 2.86 9.58 2.86C8.93 2.86 8.28 2.86 7.63 2.88C6.98 2.88 6.65 3.19 6.65 3.87C6.62 4.59 6.65 5.28 6.65 6.03L9.43 6.03C9.82 6.03 9.96 6.17 9.96 6.55L9.96 9.46C9.96 9.84 9.84 9.96 9.43 9.96C8.57 9.96 6.72 9.96 6.65 9.96L6.65 17.79C6.65 18.19 6.53 18.34 6.1 18.34C5.09 18.34 4.1 18.34 3.1 18.34C2.74 18.34 2.59 18.19 2.59 17.83C2.59 15.31 2.59 10.06 2.59 9.99Z" fill="#FFFFFF" fill-opacity="1.000000" fill-rule="nonzero"/>
</svg>
