<svg width="24.000000" height="24.000000" viewBox="0 0 24 24" fill="none" xmlns="http://www.w3.org/2000/svg" xmlns:xlink="http://www.w3.org/1999/xlink">
	<desc>
			Created with Pixso.
	</desc>
	<defs>
		<clipPath id="clip2_9332">
			<rect id="fi-rr-settings-sliders" width="24.000000" height="24.000000" fill="white" fill-opacity="0"/>
		</clipPath>
	</defs>
	<rect id="fi-rr-settings-sliders" width="24.000000" height="24.000000" fill="#FFFFFF" fill-opacity="0"/>
	<g clip-path="url(#clip2_9332)">
		<path id="Vector" d="M1 4.75L3.73 4.75C3.95 5.54 4.41 6.23 5.06 6.73C5.71 7.23 6.51 7.5 7.33 7.5C8.15 7.5 8.94 7.23 9.59 6.73C10.24 6.23 10.71 5.54 10.93 4.75L23 4.75C23.26 4.75 23.51 4.64 23.7 4.45C23.89 4.26 24 4.01 24 3.75C24 3.48 23.89 3.23 23.7 3.04C23.51 2.85 23.26 2.75 23 2.75L10.93 2.75C10.71 1.96 10.24 1.26 9.59 0.76C8.94 0.26 8.15 6.1e-5 7.33 6.1e-5C6.51 6.1e-5 5.71 0.26 5.06 0.76C4.41 1.26 3.95 1.96 3.73 2.75L1 2.75C0.73 2.75 0.48 2.85 0.29 3.04C0.1 3.23 0 3.48 0 3.75C0 4.01 0.1 4.26 0.29 4.45C0.48 4.64 0.73 4.75 1 4.75ZM7.33 2C7.67 2 8.01 2.1 8.3 2.29C8.59 2.48 8.81 2.76 8.94 3.08C9.08 3.4 9.11 3.75 9.04 4.09C8.98 4.43 8.81 4.74 8.57 4.98C8.32 5.23 8.01 5.39 7.67 5.46C7.33 5.53 6.98 5.49 6.66 5.36C6.34 5.23 6.07 5.01 5.87 4.72C5.68 4.43 5.58 4.09 5.58 3.75C5.58 3.28 5.76 2.84 6.09 2.51C6.42 2.18 6.86 2 7.33 2Z" fill="#FFFFFF" fill-opacity="1.000000" fill-rule="nonzero"/>
		<path id="Vector" d="M23 10.99L20.26 10.99C20.04 10.2 19.58 9.51 18.93 9.01C18.28 8.51 17.48 8.24 16.66 8.24C15.84 8.24 15.05 8.51 14.4 9.01C13.75 9.51 13.28 10.2 13.06 10.99L1 10.99C0.73 10.99 0.48 11.1 0.29 11.29C0.1 11.47 0 11.73 0 11.99C0 12.26 0.1 12.51 0.29 12.7C0.48 12.89 0.73 12.99 1 12.99L13.06 12.99C13.28 13.78 13.75 14.48 14.4 14.98C15.05 15.48 15.84 15.75 16.66 15.75C17.48 15.75 18.28 15.48 18.93 14.98C19.58 14.48 20.04 13.78 20.26 12.99L23 12.99C23.26 12.99 23.51 12.89 23.7 12.7C23.89 12.51 24 12.26 24 11.99C24 11.73 23.89 11.47 23.7 11.29C23.51 11.1 23.26 10.99 23 10.99ZM16.66 13.74C16.32 13.74 15.98 13.64 15.69 13.45C15.4 13.26 15.18 12.98 15.05 12.66C14.91 12.34 14.88 11.99 14.95 11.65C15.01 11.31 15.18 11 15.42 10.76C15.67 10.51 15.98 10.35 16.32 10.28C16.66 10.21 17.01 10.24 17.33 10.38C17.65 10.51 17.92 10.73 18.12 11.02C18.31 11.31 18.41 11.65 18.41 11.99C18.41 12.46 18.23 12.9 17.9 13.23C17.57 13.56 17.13 13.74 16.66 13.74Z" fill="#FFFFFF" fill-opacity="1.000000" fill-rule="nonzero"/>
		<path id="Vector" d="M23 19.25L10.93 19.25C10.71 18.46 10.24 17.76 9.59 17.26C8.94 16.76 8.15 16.5 7.33 16.5C6.51 16.5 5.71 16.76 5.06 17.26C4.41 17.76 3.95 18.46 3.73 19.25L1 19.25C0.73 19.25 0.48 19.35 0.29 19.54C0.1 19.73 0 19.98 0 20.25C0 20.51 0.1 20.76 0.29 20.95C0.48 21.14 0.73 21.25 1 21.25L3.73 21.25C3.95 22.04 4.41 22.73 5.06 23.23C5.71 23.73 6.51 24 7.33 24C8.15 24 8.94 23.73 9.59 23.23C10.24 22.73 10.71 22.04 10.93 21.25L23 21.25C23.26 21.25 23.51 21.14 23.7 20.95C23.89 20.76 24 20.51 24 20.25C24 19.98 23.89 19.73 23.7 19.54C23.51 19.35 23.26 19.25 23 19.25ZM7.33 22C6.98 22 6.64 21.89 6.36 21.7C6.07 21.51 5.84 21.23 5.71 20.92C5.58 20.6 5.54 20.24 5.61 19.9C5.68 19.56 5.85 19.25 6.09 19.01C6.34 18.76 6.65 18.6 6.99 18.53C7.33 18.46 7.68 18.5 8 18.63C8.32 18.76 8.59 18.99 8.78 19.27C8.98 19.56 9.08 19.9 9.08 20.25C9.08 20.71 8.89 21.15 8.56 21.48C8.24 21.81 7.79 21.99 7.33 22Z" fill="#FFFFFF" fill-opacity="1.000000" fill-rule="nonzero"/>
	</g>
</svg>
