<svg width="24.000000" height="24.000000" viewBox="0 0 24 24" fill="none" xmlns="http://www.w3.org/2000/svg" xmlns:xlink="http://www.w3.org/1999/xlink">
	<desc>
			Created with Pixso.
	</desc>
	<defs>
		<clipPath id="clip3_18147">
			<rect id="fi-rr-exclamation" width="24.000000" height="24.000000" transform="translate(-0.500000 0.000000)" fill="white" fill-opacity="0"/>
		</clipPath>
	</defs>
	<rect id="fi-rr-exclamation" width="24.000000" height="24.000000" transform="translate(-0.500000 0.000000)" fill="#FFFFFF" fill-opacity="0"/>
	<g clip-path="url(#clip3_18147)">
		<path id="Vector" d="M11.5 0C9.12 0 6.8 0.7 4.83 2.02C2.85 3.34 1.32 5.21 0.41 7.4C-0.5 9.6 -0.74 12.01 -0.27 14.34C0.19 16.66 1.33 18.8 3.01 20.48C4.69 22.16 6.83 23.3 9.15 23.76C11.48 24.23 13.89 23.99 16.09 23.08C18.28 22.17 20.15 20.64 21.47 18.66C22.79 16.69 23.5 14.37 23.5 12C23.49 8.81 22.23 5.76 19.98 3.51C17.73 1.26 14.68 0 11.5 0L11.5 0ZM11.5 22C9.52 22 7.58 21.41 5.94 20.31C4.29 19.21 3.01 17.65 2.26 15.82C1.5 13.99 1.3 11.98 1.69 10.04C2.07 8.1 3.03 6.32 4.42 4.92C5.82 3.53 7.6 2.57 9.54 2.19C11.48 1.8 13.49 2 15.32 2.76C17.15 3.51 18.71 4.79 19.81 6.44C20.91 8.08 21.5 10.02 21.5 12C21.49 14.65 20.44 17.19 18.56 19.06C16.69 20.94 14.15 21.99 11.5 22Z" fill="#FFFFFF" fill-opacity="1.000000" fill-rule="nonzero"/>
		<path id="Vector" d="M11.5 5C11.23 5 10.98 5.1 10.79 5.29C10.6 5.48 10.5 5.73 10.5 6L10.5 14C10.5 14.26 10.6 14.51 10.79 14.7C10.98 14.89 11.23 15 11.5 15C11.76 15 12.01 14.89 12.2 14.7C12.39 14.51 12.5 14.26 12.5 14L12.5 6C12.5 5.73 12.39 5.48 12.2 5.29C12.01 5.1 11.76 5 11.5 5Z" fill="#FFFFFF" fill-opacity="1.000000" fill-rule="nonzero"/>
		<path id="Vector" d="M11.5 17C12.05 17 12.5 17.44 12.5 18C12.5 18.55 12.05 19 11.5 19C10.94 19 10.5 18.55 10.5 18C10.5 17.44 10.94 17 11.5 17Z" fill="#FFFFFF" fill-opacity="1.000000" fill-rule="evenodd"/>
	</g>
</svg>
