<svg width="16.000000" height="16.000000" viewBox="0 0 16 16" fill="none" xmlns="http://www.w3.org/2000/svg" xmlns:xlink="http://www.w3.org/1999/xlink">
	<desc>
			Created with Pixso.
	</desc>
	<defs>
		<clipPath id="clip2_11154">
			<rect id="Icon-set" width="16.000000" height="16.000000" fill="white" fill-opacity="0"/>
		</clipPath>
		<linearGradient id="paint_linear_2_11153_0" x1="1.957655" y1="-0.443744" x2="16.928616" y2="15.062261" gradientUnits="userSpaceOnUse">
			<stop stop-color="#20B5D8"/>
			<stop offset="1.000000" stop-color="#8CEE98"/>
		</linearGradient>
	</defs>
	<rect id="Icon-set" width="16.000000" height="16.000000" fill="#FFFFFF" fill-opacity="0"/>
	<g clip-path="url(#clip2_11154)">
		<path id="Vector" d="M8.49 1.99C7.63 1.99 6.78 2.24 6.06 2.71C5.33 3.18 4.75 3.84 4.39 4.63C4.04 5.42 3.92 6.29 4.04 7.15C4.17 8.01 4.54 8.81 5.11 9.46C5.47 9.88 5.73 10.38 5.89 10.91L6.13 11.63C6.14 11.65 6.15 11.66 6.15 11.67C6.05 11.76 5.97 11.86 5.92 11.99C5.86 12.11 5.83 12.24 5.83 12.37L5.83 12.99C5.83 13.14 5.87 13.29 5.94 13.42C6.01 13.55 6.11 13.67 6.23 13.76L6.32 14.3C6.4 14.77 6.65 15.2 7.01 15.51C7.38 15.82 7.84 15.99 8.32 15.99L8.59 15.99C9.07 15.99 9.54 15.82 9.9 15.51C10.27 15.2 10.51 14.77 10.59 14.3L10.68 13.81C10.82 13.73 10.94 13.61 11.03 13.46C11.11 13.32 11.15 13.16 11.16 12.99L11.16 12.37C11.15 12.24 11.13 12.11 11.07 11.99C11.02 11.88 10.94 11.77 10.85 11.68C10.86 11.67 10.86 11.65 10.87 11.64L11.11 10.91C11.27 10.38 11.54 9.88 11.89 9.46C12.46 8.81 12.84 8.01 12.96 7.15C13.09 6.29 12.97 5.41 12.61 4.63C12.25 3.84 11.67 3.17 10.94 2.7C10.21 2.23 9.36 1.99 8.49 1.99ZM8.24 10.41C8.28 10.39 8.32 10.37 8.35 10.34L8.74 9.95L8.74 11.43L8.24 11.43L8.24 10.41ZM10.16 12.43L10.16 12.94L6.83 12.94L6.83 12.42L10.16 12.43ZM8.59 14.99L8.32 14.99C8.08 14.99 7.85 14.9 7.66 14.75C7.47 14.59 7.35 14.37 7.31 14.13L7.27 13.94L9.64 13.94L9.61 14.13C9.57 14.37 9.44 14.59 9.26 14.75C9.07 14.9 8.84 14.99 8.59 14.99ZM11.14 8.8C10.7 9.33 10.37 9.94 10.16 10.6L9.92 11.32C9.92 11.36 9.91 11.39 9.91 11.42L9.74 11.42L9.74 8.49C9.74 8.36 9.69 8.23 9.6 8.14C9.5 8.04 9.38 7.99 9.24 7.99C9.11 7.99 8.98 8.04 8.89 8.14C8.8 8.23 8.74 8.36 8.74 8.49L8.74 8.57C8.71 8.59 8.67 8.61 8.64 8.64L8.24 9.03L8.24 8.49C8.24 8.36 8.19 8.23 8.1 8.14C8 8.04 7.88 7.99 7.74 7.99C7.61 7.99 7.48 8.04 7.39 8.14C7.3 8.23 7.24 8.36 7.24 8.49L7.24 11.43L7.09 11.43C7.09 11.39 7.09 11.36 7.08 11.33L6.84 10.6C6.64 9.94 6.31 9.32 5.86 8.8C5.42 8.29 5.13 7.67 5.03 7C4.93 6.33 5.03 5.65 5.31 5.04C5.59 4.42 6.03 3.9 6.6 3.54C7.17 3.17 7.83 2.98 8.5 2.98C9.18 2.98 9.84 3.17 10.4 3.54C10.97 3.9 11.42 4.42 11.7 5.04C11.97 5.65 12.07 6.33 11.97 7C11.87 7.67 11.58 8.29 11.14 8.8L11.14 8.8ZM3.14 1.84C3.06 1.75 3.02 1.62 3.02 1.5C3.03 1.37 3.08 1.25 3.17 1.16C3.26 1.07 3.38 1.02 3.5 1.01C3.63 1.01 3.75 1.05 3.85 1.14L4.85 2.14C4.9 2.18 4.93 2.24 4.96 2.3C4.99 2.36 5 2.42 5 2.49C5 2.56 4.99 2.62 4.96 2.68C4.94 2.75 4.9 2.8 4.85 2.85C4.81 2.9 4.75 2.93 4.69 2.96C4.63 2.98 4.56 3 4.5 3C4.43 2.99 4.36 2.98 4.3 2.95C4.24 2.93 4.19 2.89 4.14 2.84L3.14 1.84ZM1.04 4.15C1.06 4.08 1.09 4.02 1.13 3.97C1.17 3.92 1.22 3.88 1.28 3.85C1.34 3.81 1.4 3.79 1.47 3.79C1.53 3.78 1.6 3.78 1.66 3.8L3.1 4.21C3.22 4.25 3.32 4.32 3.39 4.42C3.45 4.52 3.48 4.65 3.46 4.76C3.45 4.88 3.39 4.99 3.3 5.07C3.2 5.15 3.09 5.2 2.97 5.2C2.92 5.2 2.87 5.19 2.83 5.18L1.39 4.76C1.26 4.73 1.15 4.64 1.09 4.53C1.02 4.41 1.01 4.27 1.04 4.15ZM3.47 6.83C3.49 6.89 3.5 6.96 3.49 7.02C3.49 7.09 3.47 7.15 3.44 7.21C3.41 7.27 3.37 7.32 3.32 7.37C3.27 7.41 3.22 7.44 3.15 7.46L1.65 7.96C1.53 8.01 1.39 8 1.27 7.94C1.15 7.88 1.06 7.77 1.02 7.65C0.98 7.52 0.99 7.38 1.05 7.26C1.11 7.15 1.21 7.06 1.34 7.01L2.84 6.51C2.96 6.47 3.1 6.48 3.22 6.54C3.34 6.6 3.43 6.71 3.47 6.83L3.47 6.83ZM12.14 2.84C12.05 2.75 11.99 2.62 11.99 2.49C11.99 2.36 12.05 2.23 12.14 2.14L13.14 1.14C13.24 1.04 13.36 0.99 13.49 1C13.62 1 13.75 1.05 13.84 1.14C13.93 1.23 13.99 1.36 13.99 1.49C13.99 1.62 13.94 1.75 13.85 1.84L12.85 2.84C12.75 2.94 12.63 2.99 12.49 2.99C12.36 2.99 12.23 2.94 12.14 2.84ZM13.89 4.21L15.33 3.8C15.39 3.78 15.46 3.78 15.52 3.79C15.59 3.79 15.65 3.81 15.71 3.85C15.77 3.88 15.82 3.92 15.86 3.97C15.9 4.02 15.93 4.08 15.95 4.15C15.96 4.21 15.97 4.27 15.96 4.34C15.95 4.41 15.93 4.47 15.9 4.53C15.87 4.58 15.83 4.63 15.78 4.67C15.73 4.72 15.67 4.75 15.6 4.76L14.16 5.18C14.12 5.19 14.07 5.2 14.02 5.2C13.9 5.2 13.79 5.15 13.69 5.07C13.6 4.99 13.54 4.88 13.53 4.76C13.51 4.65 13.54 4.52 13.6 4.42C13.67 4.32 13.77 4.25 13.89 4.21ZM15.97 7.65C15.95 7.71 15.92 7.77 15.87 7.82C15.83 7.87 15.78 7.91 15.72 7.94C15.66 7.97 15.6 7.98 15.53 7.99C15.46 7.99 15.4 7.98 15.34 7.96L13.84 7.46C13.77 7.44 13.72 7.41 13.67 7.37C13.62 7.32 13.58 7.27 13.55 7.21C13.52 7.15 13.5 7.09 13.5 7.02C13.49 6.96 13.5 6.89 13.52 6.83C13.54 6.77 13.57 6.71 13.62 6.66C13.66 6.61 13.71 6.57 13.77 6.54C13.83 6.51 13.89 6.49 13.96 6.49C14.02 6.48 14.09 6.49 14.15 6.51L15.65 7.01C15.72 7.03 15.77 7.07 15.82 7.11C15.87 7.15 15.91 7.21 15.94 7.26C15.97 7.32 15.99 7.39 15.99 7.45C16 7.52 15.99 7.58 15.97 7.65Z" fill="url(#paint_linear_2_11153_0)" fill-opacity="1.000000" fill-rule="nonzero"/>
	</g>
</svg>
