<svg width="20.000000" height="19.000000" viewBox="0 0 20 19" fill="none" xmlns="http://www.w3.org/2000/svg" xmlns:xlink="http://www.w3.org/1999/xlink">
	<desc>
			Created with Pixso.
	</desc>
	<defs/>
	<path id="Vector" d="M19.1 18.34L19.1 11.31C19.1 7.85 18.35 5.21 14.32 5.21C12.38 5.21 11.08 6.27 10.55 7.27L10.5 7.27L10.5 5.52L6.69 5.52L6.69 18.34L10.67 18.34L10.67 11.98C10.67 10.3 10.98 8.69 13.05 8.69C15.09 8.69 15.11 10.59 15.11 12.07L15.11 18.31L19.1 18.31L19.1 18.34Z" fill="#FFFFFF" fill-opacity="1.000000" fill-rule="nonzero"/>
	<path id="Vector" d="M0.21 5.52L4.19 5.52L4.19 18.34L0.21 18.34L0.21 5.52Z" fill="#FFFFFF" fill-opacity="1.000000" fill-rule="nonzero"/>
	<path id="Vector" d="M2.2 -0.86C0.93 -0.86 -0.1 0.17 -0.1 1.44C-0.1 2.71 0.93 3.77 2.2 3.77C3.47 3.77 4.5 2.71 4.5 1.44C4.5 0.17 3.47 -0.86 2.2 -0.86Z" fill="#FFFFFF" fill-opacity="1.000000" fill-rule="nonzero"/>
</svg>
