<svg width="24.000000" height="24.000000" viewBox="0 0 24 24" fill="none" xmlns="http://www.w3.org/2000/svg" xmlns:xlink="http://www.w3.org/1999/xlink">
	<desc>
			Created with Pixso.
	</desc>
	<defs>
		<clipPath id="clip2_19285">
			<rect id="fi-rr-arrow-left" width="24.000000" height="24.000000" fill="white" fill-opacity="0"/>
		</clipPath>
	</defs>
	<rect id="fi-rr-arrow-left" width="24.000000" height="24.000000" fill="#FFFFFF" fill-opacity="0"/>
	<g clip-path="url(#clip2_19285)">
		<path id="Vector" d="M0.88 14.09L4.75 18C4.84 18.09 4.95 18.16 5.07 18.21C5.19 18.26 5.32 18.29 5.46 18.29C5.59 18.29 5.72 18.26 5.84 18.21C5.96 18.16 6.07 18.09 6.17 18C6.26 17.9 6.33 17.79 6.38 17.67C6.43 17.55 6.46 17.42 6.46 17.29C6.46 17.15 6.43 17.02 6.38 16.9C6.33 16.78 6.26 16.67 6.17 16.58L2.61 13L23 13C23.26 13 23.52 12.89 23.7 12.7C23.89 12.51 24 12.26 24 12C24 11.73 23.89 11.48 23.7 11.29C23.52 11.1 23.26 11 23 11L2.55 11L6.17 7.38C6.34 7.19 6.44 6.94 6.44 6.69C6.44 6.43 6.34 6.18 6.17 6C6.07 5.9 5.96 5.83 5.84 5.78C5.72 5.73 5.59 5.7 5.46 5.7C5.32 5.7 5.19 5.73 5.07 5.78C4.95 5.83 4.84 5.9 4.75 6L0.88 9.85C0.31 10.41 0 11.17 0 11.97C0 12.76 0.31 13.52 0.88 14.09Z" fill="#FFFFFF" fill-opacity="1.000000" fill-rule="nonzero"/>
	</g>
</svg>
