<svg width="24.000000" height="17.000000" viewBox="0 0 24 17" fill="none" xmlns="http://www.w3.org/2000/svg" xmlns:xlink="http://www.w3.org/1999/xlink">
	<desc>
			Created with Pixso.
	</desc>
	<defs>
		<linearGradient id="paint_linear_2_10092_0" x1="0.967499" y1="2.277824" x2="23.190001" y2="2.277824" gradientUnits="userSpaceOnUse">
			<stop stop-color="#5034FF"/>
			<stop offset="1.000000" stop-color="#35E1AD"/>
		</linearGradient>
	</defs>
	<path id="Vector" d="M6 0.79C6 0.13 6.53 -0.41 7.19 -0.41L22.8 -0.41C23.46 -0.41 24 0.13 24 0.79C24 1.46 23.46 2 22.8 2L7.19 2C6.53 2 6 1.46 6 0.79ZM22.8 6.79L1.19 6.79C0.53 6.79 0 7.33 0 8C0 8.66 0.53 9.19 1.19 9.19L22.8 9.19C23.46 9.19 24 8.66 24 8C24 7.33 23.46 6.79 22.8 6.79ZM22.8 14L12 14C11.33 14 10.8 14.53 10.8 15.2C10.8 15.86 11.33 16.4 12 16.4L22.8 16.4C23.46 16.4 24 15.86 24 15.2C24 14.53 23.46 14 22.8 14Z" fill="url(#paint_linear_2_10092_0)" fill-opacity="1.000000" fill-rule="nonzero"/>
</svg>
