<svg width="12.000000" height="15.000000" viewBox="0 0 12 15" fill="none" xmlns="http://www.w3.org/2000/svg" xmlns:xlink="http://www.w3.org/1999/xlink">
	<desc>
			Created with Pixso.
	</desc>
	<defs/>
	<path id="Shape" d="M11.37 10.89L10.85 10.32C10.7 11.85 9.94 13.15 8.53 14.06L8.32 13.23C7.13 14.08 5.08 14.62 3.33 13.65C3.55 12.56 3.74 11.45 3.32 10.13C2.35 11.61 1.49 12.19 1.49 12.19C0.83 11.1 0.89 8.93 1.09 8.29L0 8.62C0 7.9 0.53 6.35 1.31 5.48L0.62 5.37C1.09 4.44 1.78 3.64 2.63 3.04L2.63 3.04C2.37 3.43 2.37 4.4 3.12 4.77C2.8 4.23 2.76 3.56 3.09 3.21C3.42 2.86 3.98 2.98 4.33 3.25C4.23 2.95 3.92 2.56 3.45 2.54C4.33 2.09 5.33 1.85 6.38 1.85C6.58 1.85 6.77 1.85 6.96 1.87C7.27 1.99 7.72 2.41 7.93 2.68C7.93 2.68 7.94 2.37 7.77 1.99C8.91 2.27 9.45 2.72 9.68 2.94C9.73 3.42 9.87 3.71 10.07 4.17C9.7 3.77 8.77 3.11 8.33 2.96C8.33 2.96 8.29 3.37 8.14 3.58C7.26 2.95 6.82 2.79 6.82 2.79C5.85 2.93 5.23 3.3 4.89 3.59L5.19 3.83C4.6 4.01 4.22 4.5 4.22 4.5C4.23 4.51 4.75 4.58 4.75 4.58C4.75 4.58 4.69 5.18 5.45 5.55C6.11 5.87 7.04 5.47 7.93 5.82C7.35 5.16 6.94 4.87 6.94 4.87C6.94 4.87 6.71 4.82 6.55 4.82C6.35 4.83 6.05 4.86 5.72 4.74C5.56 4.68 5.37 4.57 5.23 4.48C5.23 4.48 5.63 4.07 6.23 3.98C6.23 3.98 6.77 4.13 7.19 4.44C7.48 4.17 7.77 4.18 7.77 4.18C7.77 4.18 7.48 4.44 7.57 4.77C7.99 5.14 8.45 5.67 8.45 5.67C8.92 5.42 9.94 5.48 10.15 5.72C9.89 5.38 9.5 5.09 9.21 4.85C9.17 4.73 8.85 4.29 8.79 4.24C8.79 4.24 9.1 4.34 9.38 4.58C9.45 4.47 9.6 4.36 9.8 4.31C10.01 4.48 10.05 4.74 10.04 4.78C9.95 4.89 9.86 4.94 9.86 4.94L10.35 5.46L10.4 5.09C11.55 6.69 12.18 8.55 11.37 10.89ZM2.31 0.72C2.97 1.02 3.4 1.39 3.48 1.45C3.44 1.28 3.31 0.48 3.24 -0.03C3.62 0.24 4.52 0.85 4.81 1.04C4.93 0.68 5.35 -0.5 5.35 -0.5C5.35 -0.5 6.1 0.69 6.23 0.88C6.38 0.72 7.28 -0.26 7.51 -0.5C7.55 0.06 7.6 0.86 7.62 0.99C7.66 0.93 8.01 0.45 8.58 0.02C8.33 0.5 8.21 1.17 8.16 1.7C7.59 1.55 7 1.46 6.38 1.46C5.2 1.46 4.08 1.77 3.12 2.3C2.95 1.79 2.68 1.14 2.31 0.72Z" fill="#5A317D" fill-opacity="1.000000" fill-rule="nonzero"/>
</svg>
