<svg width="16.000000" height="16.000000" viewBox="0 0 16 16" fill="none" xmlns="http://www.w3.org/2000/svg" xmlns:xlink="http://www.w3.org/1999/xlink">
	<desc>
			Created with Pixso.
	</desc>
	<defs/>
	<path id="Vector" d="M14.83 7.33L8.16 7.33L8.16 0.66C8.16 0.48 8.09 0.32 7.97 0.19C7.84 0.07 7.67 0 7.5 0L7.5 0C7.32 0 7.15 0.07 7.02 0.19C6.9 0.32 6.83 0.48 6.83 0.66L6.83 7.33L0.16 7.33C-0.02 7.33 -0.18 7.4 -0.31 7.52C-0.43 7.65 -0.5 7.82 -0.5 8L-0.5 8C-0.5 8.17 -0.43 8.34 -0.31 8.47C-0.18 8.59 -0.02 8.66 0.16 8.66L6.83 8.66L6.83 15.33C6.83 15.51 6.9 15.67 7.02 15.8C7.15 15.92 7.32 16 7.5 16C7.67 16 7.84 15.92 7.97 15.8C8.09 15.67 8.16 15.51 8.16 15.33L8.16 8.66L14.83 8.66C15.01 8.66 15.17 8.59 15.3 8.47C15.42 8.34 15.5 8.17 15.5 8C15.5 7.82 15.42 7.65 15.3 7.52C15.17 7.4 15.01 7.33 14.83 7.33Z" fill="#FFFFFF" fill-opacity="1.000000" fill-rule="nonzero"/>
</svg>
