<svg width="16.000000" height="16.000000" viewBox="0 0 16 16" fill="none" xmlns="http://www.w3.org/2000/svg" xmlns:xlink="http://www.w3.org/1999/xlink">
	<desc>
			Created with Pixso.
	</desc>
	<defs>
		<clipPath id="clip2_9342">
			<rect id="fi-rr-search" width="16.000000" height="16.000000" fill="white" fill-opacity="0"/>
		</clipPath>
	</defs>
	<rect id="fi-rr-search" width="16.000000" height="16.000000" fill="#FFFFFF" fill-opacity="0"/>
	<g clip-path="url(#clip2_9342)">
		<path id="Vector" d="M15.8 14.86L11.82 10.88C12.9 9.55 13.44 7.86 13.31 6.15C13.18 4.44 12.4 2.85 11.13 1.7C9.86 0.55 8.2 -0.07 6.48 -0.02C4.77 0.02 3.14 0.72 1.93 1.93C0.72 3.14 0.02 4.77 -0.02 6.48C-0.07 8.2 0.55 9.86 1.7 11.13C2.85 12.4 4.44 13.18 6.15 13.31C7.86 13.44 9.55 12.91 10.88 11.82L14.86 15.8C14.98 15.92 15.15 15.99 15.33 15.99C15.5 15.99 15.67 15.92 15.79 15.79C15.91 15.67 15.99 15.5 15.99 15.33C15.99 15.15 15.92 14.98 15.8 14.86ZM6.66 12C5.61 12 4.58 11.68 3.7 11.1C2.82 10.51 2.14 9.68 1.73 8.7C1.33 7.73 1.22 6.66 1.43 5.62C1.64 4.59 2.14 3.64 2.89 2.89C3.64 2.15 4.59 1.64 5.62 1.43C6.66 1.23 7.73 1.33 8.7 1.73C9.68 2.14 10.51 2.82 11.1 3.7C11.68 4.58 11.99 5.61 11.99 6.66C11.99 8.08 11.43 9.43 10.43 10.43C9.43 11.43 8.08 11.99 6.66 12Z" fill="#FFFFFF" fill-opacity="1.000000" fill-rule="nonzero"/>
	</g>
</svg>
