<svg width="15.000000" height="13.000000" viewBox="0 0 15 13" fill="none" xmlns="http://www.w3.org/2000/svg" xmlns:xlink="http://www.w3.org/1999/xlink">
	<desc>
			Created with Pixso.
	</desc>
	<defs/>
	<path id="Icon" d="M0.59 0.71L1.38 5.25L6.25 5.25C6.66 5.25 7 5.58 7 6C7 6.41 6.66 6.75 6.25 6.75L1.38 6.75L0.59 11.28L12.92 6L0.59 0.71ZM-0.02 6L-0.94 0.68C-1.02 0.25 -0.88 -0.19 -0.57 -0.5C-0.18 -0.89 0.4 -1 0.91 -0.79L14.31 4.96C14.73 5.14 15 5.54 15 6C15 6.45 14.73 6.85 14.31 7.03L0.91 12.78C0.4 12.99 -0.18 12.88 -0.57 12.49C-0.88 12.18 -1.02 11.74 -0.94 11.31L-0.02 6Z" fill="#2C2C2E" fill-opacity="1.000000" fill-rule="evenodd"/>
</svg>
