<svg width="16.000000" height="16.000000" viewBox="0 0 16 16" fill="none" xmlns="http://www.w3.org/2000/svg" xmlns:xlink="http://www.w3.org/1999/xlink">
	<desc>
			Created with Pixso.
	</desc>
	<defs>
		<clipPath id="clip3_6864">
			<rect id="smiley" width="16.000000" height="16.000000" fill="white" fill-opacity="0"/>
		</clipPath>
	</defs>
	<rect id="smiley" width="16.000000" height="16.000000" fill="#FFFFFF" fill-opacity="0"/>
	<g clip-path="url(#clip3_6864)">
		<path id="Icon" d="M1.5 8C1.5 6.27 2.18 4.62 3.4 3.4C4.62 2.18 6.27 1.5 8 1.5C9.72 1.5 11.37 2.18 12.59 3.4C13.81 4.62 14.5 6.27 14.5 8C14.5 9.72 13.81 11.37 12.59 12.59C11.37 13.81 9.72 14.5 8 14.5C6.27 14.5 4.62 13.81 3.4 12.59C2.18 11.37 1.5 9.72 1.5 8ZM8 0C5.87 0 3.84 0.84 2.34 2.34C0.84 3.84 0 5.87 0 8C0 10.12 0.84 12.15 2.34 13.65C3.84 15.15 5.87 16 8 16C10.12 16 12.15 15.15 13.65 13.65C15.15 12.15 16 10.12 16 8C16 5.87 15.15 3.84 13.65 2.34C12.15 0.84 10.12 0 8 0ZM5 8C5.26 8 5.51 7.89 5.7 7.7C5.89 7.51 6 7.26 6 7C6 6.73 5.89 6.48 5.7 6.29C5.51 6.1 5.26 6 5 6C4.73 6 4.48 6.1 4.29 6.29C4.1 6.48 4 6.73 4 7C4 7.26 4.1 7.51 4.29 7.7C4.48 7.89 4.73 8 5 8ZM12 7C12 7.26 11.89 7.51 11.7 7.7C11.51 7.89 11.26 8 11 8C10.73 8 10.48 7.89 10.29 7.7C10.1 7.51 10 7.26 10 7C10 6.73 10.1 6.48 10.29 6.29C10.48 6.1 10.73 6 11 6C11.26 6 11.51 6.1 11.7 6.29C11.89 6.48 12 6.73 12 7ZM5.32 9.63C5.48 9.52 5.68 9.47 5.87 9.51C6.06 9.54 6.24 9.65 6.35 9.81L6.36 9.81C6.46 9.93 6.58 10.04 6.71 10.13C6.97 10.3 7.39 10.5 8 10.5C8.6 10.5 9.01 10.3 9.28 10.12C9.41 10.04 9.53 9.93 9.63 9.81L9.64 9.81C9.75 9.64 9.93 9.53 10.12 9.5C10.32 9.47 10.52 9.51 10.68 9.63C10.84 9.75 10.96 9.92 10.99 10.12C11.02 10.31 10.97 10.51 10.86 10.68L10.25 10.25C10.86 10.68 10.86 10.68 10.86 10.68L10.86 10.68L10.86 10.68L10.86 10.68L10.85 10.69L10.84 10.71C10.78 10.78 10.72 10.85 10.65 10.92C10.49 11.09 10.31 11.24 10.12 11.37C9.49 11.78 8.75 12 8 12C7.05 12 6.34 11.69 5.87 11.37C5.62 11.2 5.39 10.99 5.2 10.76C5.18 10.74 5.17 10.73 5.15 10.71L5.14 10.69L5.13 10.68L5.13 10.68L5.13 10.68L5.13 10.68L5.75 10.25L5.13 10.68C5.02 10.51 4.97 10.31 5.01 10.12C5.04 9.92 5.15 9.75 5.31 9.63L5.32 9.63Z" fill="#FFA300" fill-opacity="1.000000" fill-rule="evenodd"/>
	</g>
</svg>
