<svg width="20.000000" height="20.000000" viewBox="0 0 20 20" fill="none" xmlns="http://www.w3.org/2000/svg" xmlns:xlink="http://www.w3.org/1999/xlink">
	<desc>
			Created with Pixso.
	</desc>
	<defs/>
	<path id="Vector" d="M19.44 7.24C19.31 6.83 18.95 6.55 18.53 6.51L12.76 5.98L10.47 0.64C10.3 0.25 9.92 0 9.5 0C9.07 0 8.69 0.25 8.52 0.64L6.23 5.98L0.46 6.51C0.04 6.55 -0.32 6.83 -0.45 7.24C-0.58 7.64 -0.46 8.09 -0.14 8.37L4.22 12.19L2.93 17.86C2.84 18.28 3 18.71 3.35 18.96C3.53 19.09 3.75 19.16 3.97 19.16C4.16 19.16 4.35 19.11 4.52 19.01L9.5 16.03L14.47 19.01C14.84 19.23 15.3 19.21 15.64 18.96C15.99 18.71 16.15 18.28 16.05 17.86L14.77 12.19L19.13 8.37C19.45 8.09 19.57 7.64 19.44 7.24Z" fill="#FBE202" fill-opacity="1.000000" fill-rule="nonzero"/>
</svg>
