<svg width="16.000000" height="16.000000" viewBox="0 0 16 16" fill="none" xmlns="http://www.w3.org/2000/svg" xmlns:xlink="http://www.w3.org/1999/xlink">
	<desc>
			Created with Pixso.
	</desc>
	<defs>
		<clipPath id="clip3_6870">
			<rect id="mention" width="16.000000" height="16.000000" fill="white" fill-opacity="0"/>
		</clipPath>
	</defs>
	<rect id="mention" width="16.000000" height="16.000000" fill="#FFFFFF" fill-opacity="0"/>
	<g clip-path="url(#clip3_6870)">
		<path id="Icon" d="M4.75 2.36C4 2.79 3.36 3.36 2.84 4.04C2.32 4.71 1.94 5.49 1.72 6.31C1.27 7.98 1.5 9.75 2.36 11.25C3.23 12.74 4.65 13.83 6.31 14.27C7.98 14.72 9.75 14.49 11.25 13.63C11.42 13.53 11.62 13.51 11.8 13.57C11.99 13.62 12.15 13.74 12.25 13.91C12.34 14.08 12.37 14.28 12.33 14.47C12.28 14.66 12.16 14.82 12 14.92C10.48 15.8 8.73 16.15 6.99 15.93C5.26 15.71 3.65 14.93 2.4 13.71C1.15 12.49 0.34 10.89 0.08 9.17C-0.17 7.44 0.14 5.67 0.98 4.14C1.82 2.61 3.14 1.4 4.74 0.69C6.33 -0.02 8.12 -0.19 9.82 0.2C11.52 0.6 13.04 1.54 14.16 2.89C15.27 4.23 15.91 5.91 15.99 7.65C15.99 7.68 16 7.71 16 7.75L16 7.85C16 7.91 16 7.98 16 8.04L16 9.25C16 9.84 15.8 10.42 15.44 10.9C15.09 11.37 14.58 11.72 14.01 11.89C13.44 12.05 12.83 12.03 12.27 11.82C11.72 11.61 11.24 11.22 10.92 10.72C10.29 11.4 9.44 11.84 8.51 11.96C7.59 12.08 6.65 11.88 5.86 11.38C5.07 10.88 4.48 10.13 4.19 9.24C3.9 8.36 3.93 7.4 4.27 6.53C4.61 5.66 5.25 4.94 6.06 4.49C6.88 4.04 7.83 3.89 8.74 4.06C9.66 4.24 10.48 4.73 11.08 5.44C11.67 6.16 12 7.06 12 8L12 9.25C12 9.58 12.13 9.89 12.36 10.13C12.59 10.36 12.91 10.5 13.25 10.5C13.58 10.5 13.89 10.36 14.13 10.13C14.36 9.89 14.5 9.58 14.5 9.25L14.5 7.86C14.47 6.73 14.15 5.63 13.57 4.66C13 3.69 12.17 2.89 11.19 2.33C10.2 1.78 9.09 1.49 7.96 1.49C6.83 1.5 5.72 1.8 4.75 2.37L4.75 2.36ZM10.5 8C10.5 7.33 10.23 6.7 9.76 6.23C9.29 5.76 8.66 5.5 8 5.5C7.33 5.5 6.7 5.76 6.23 6.23C5.76 6.7 5.5 7.33 5.5 8C5.5 8.66 5.76 9.29 6.23 9.76C6.7 10.23 7.33 10.5 8 10.5C8.66 10.5 9.29 10.23 9.76 9.76C10.23 9.29 10.5 8.66 10.5 8Z" fill="#2C2C2E" fill-opacity="1.000000" fill-rule="evenodd"/>
	</g>
</svg>
