<svg width="16.000000" height="16.000000" viewBox="0 0 16 16" fill="none" xmlns="http://www.w3.org/2000/svg" xmlns:xlink="http://www.w3.org/1999/xlink">
	<desc>
			Created with Pixso.
	</desc>
	<defs>
		<clipPath id="clip4_17589">
			<rect id="fi-rr-cross-small" width="16.000000" height="16.000000" fill="white" fill-opacity="0"/>
		</clipPath>
	</defs>
	<rect id="Tips-near-items" rx="8.000000" width="16.000000" height="16.000000" fill="#4F5460" fill-opacity="1.000000"/>
	<rect id="fi-rr-cross-small" width="16.000000" height="16.000000" fill="#FFFFFF" fill-opacity="0"/>
	<g clip-path="url(#clip4_17589)">
		<path id="Vector" d="M12 4C11.87 3.87 11.7 3.8 11.52 3.8C11.35 3.8 11.18 3.87 11.05 4L8 7.05L4.94 4C4.81 3.87 4.64 3.8 4.47 3.8C4.29 3.8 4.12 3.87 4 4C3.87 4.12 3.8 4.29 3.8 4.47C3.8 4.64 3.87 4.81 4 4.94L7.05 8L4 11.05C3.87 11.18 3.8 11.35 3.8 11.52C3.8 11.7 3.87 11.87 4 12C4.12 12.12 4.29 12.19 4.47 12.19C4.64 12.19 4.81 12.12 4.94 12L8 8.94L11.05 12C11.18 12.12 11.35 12.19 11.52 12.19C11.7 12.19 11.87 12.12 12 12C12.12 11.87 12.19 11.7 12.19 11.52C12.19 11.35 12.12 11.18 12 11.05L8.94 8L12 4.94C12.12 4.81 12.19 4.64 12.19 4.47C12.19 4.29 12.12 4.12 12 4Z" fill="#FFFFFF" fill-opacity="1.000000" fill-rule="nonzero"/>
	</g>
</svg>
