<svg width="20.000000" height="19.000000" viewBox="0 0 20 19" fill="none" xmlns="http://www.w3.org/2000/svg" xmlns:xlink="http://www.w3.org/1999/xlink">
	<desc>
			Created with Pixso.
	</desc>
	<defs/>
	<path id="Vector" d="M18.75 -0.76C18.59 -0.92 18.38 -1 18.16 -1C17.94 -1 17.73 -0.92 17.57 -0.76L9 7.82L0.42 -0.76C0.26 -0.92 0.05 -1 -0.17 -1C-0.39 -1 -0.6 -0.92 -0.76 -0.76C-0.92 -0.6 -1 -0.39 -1 -0.17C-1 0.05 -0.92 0.26 -0.76 0.42L7.82 9L-0.76 17.57C-0.92 17.73 -1 17.94 -1 18.16C-1 18.38 -0.92 18.59 -0.76 18.75C-0.6 18.91 -0.39 19 -0.17 19C0.05 19 0.26 18.91 0.42 18.75L9 10.17L17.57 18.75C17.73 18.91 17.94 19 18.16 19C18.38 19 18.59 18.91 18.75 18.75C18.91 18.59 19 18.38 19 18.16C19 17.94 18.91 17.73 18.75 17.57L10.17 9L18.75 0.42C18.91 0.26 19 0.05 19 -0.17C19 -0.39 18.91 -0.6 18.75 -0.76Z" fill="#10141C" fill-opacity="1.000000" fill-rule="nonzero"/>
</svg>
