<svg width="22.000000" height="22.000000" viewBox="0 0 22 22" fill="none" xmlns="http://www.w3.org/2000/svg" xmlns:xlink="http://www.w3.org/1999/xlink">
	<desc>
			Created with Pixso.
	</desc>
	<defs/>
	<path id="Vector (Stroke)" d="M3.32 2.88L3.32 0L1.6 0L1.6 6.01L7.61 6.01L7.61 4.29L4.33 4.29C5.99 2.69 8.25 1.71 10.75 1.71C15.87 1.71 20.03 5.87 20.03 11C20.03 12.64 19.6 14.19 18.85 15.53L18.74 15.72L18.74 18.99L15.47 18.99L15.28 19.1C13.94 19.85 12.39 20.28 10.75 20.28C5.62 20.28 1.46 16.12 1.46 11L-0.25 11C-0.25 17.07 4.67 22 10.75 22C12.61 22 14.37 21.53 15.91 20.71L20.46 20.71L20.46 16.16C21.28 14.62 21.75 12.86 21.75 11C21.75 4.92 16.82 0 10.75 0C7.88 0 5.27 1.09 3.32 2.88ZM6.45 10.14C6.45 8.71 7.6 7.56 9.03 7.56C10.45 7.56 11.6 8.71 11.6 10.14L11.6 14.43L9.89 14.43L9.89 12.71L8.17 12.71L8.17 14.43L6.45 14.43L6.45 10.14ZM8.17 11L9.89 11L9.89 10.14C9.89 9.66 9.5 9.28 9.03 9.28C8.55 9.28 8.17 9.66 8.17 10.14L8.17 11ZM13.32 7.56L15.04 7.56L15.04 14.43L13.32 14.43L13.32 7.56Z" fill="#FFFFFF" fill-opacity="1.000000" fill-rule="evenodd"/>
</svg>
