<svg width="21.000000" height="22.000000" viewBox="0 0 21 22" fill="none" xmlns="http://www.w3.org/2000/svg" xmlns:xlink="http://www.w3.org/1999/xlink">
	<desc>
			Created with Pixso.
	</desc>
	<defs>
		<linearGradient id="paint_linear_2_8941_0" x1="7.197199" y1="3.740025" x2="17.258635" y2="3.740025" gradientUnits="userSpaceOnUse">
			<stop stop-color="#5034FF"/>
			<stop offset="1.000000" stop-color="#35E1AD"/>
		</linearGradient>
	</defs>
	<path id="Vector" d="M12.25 3.32C9.99 3.32 8.18 5.1 8.17 7.37C8.15 9.66 10.02 11.45 12.21 11.46C14.46 11.47 16.29 9.68 16.31 7.41C16.33 5.17 14.49 3.32 12.25 3.32Z" fill="#FFFFFF" fill-opacity="1.000000" fill-rule="nonzero"/>
	<path id="Vector" d="M11.95 3.32L12.61 3.32C12.72 3.36 12.83 3.35 12.94 3.37C13.26 3.43 13.58 3.51 13.88 3.64L13.7 3.68C13.7 3.69 13.7 3.7 13.71 3.7C14.02 4.01 14.27 4.36 14.49 4.73C14.5 4.76 14.52 4.77 14.54 4.79C15.01 5.04 15.41 5.38 15.74 5.81C15.76 5.84 15.78 5.85 15.82 5.84C15.9 5.81 15.97 5.79 16.05 5.77C16.07 5.79 16.08 5.81 16.08 5.83C16.01 5.85 15.93 5.88 15.86 5.89C15.81 5.9 15.8 5.92 15.81 5.97C15.88 6.49 15.83 7.01 15.67 7.51C15.66 7.54 15.66 7.56 15.67 7.59C15.81 7.98 15.88 8.4 15.93 8.81C15.95 8.97 15.95 8.97 16.1 8.89C16.11 8.88 16.12 8.88 16.13 8.87C16.15 8.9 16.13 8.93 16.12 8.95C16 9.27 15.83 9.56 15.64 9.84C15.39 10.2 15.08 10.5 14.73 10.76C14.69 10.71 14.74 10.66 14.75 10.61C14.77 10.54 14.76 10.53 14.69 10.55C14.36 10.63 14.02 10.69 13.67 10.68C13.44 10.68 13.24 10.72 13.03 10.84C12.67 11.05 12.27 11.16 11.86 11.22C11.8 11.23 11.77 11.25 11.78 11.31C11.79 11.38 11.79 11.45 11.79 11.53L11.73 11.52C11.72 11.5 11.72 11.47 11.72 11.44C11.74 11.27 11.65 11.19 11.5 11.13C11.04 10.93 10.62 10.67 10.31 10.28C10.29 10.26 10.26 10.25 10.24 10.24C9.97 10.19 9.72 10.12 9.47 10.02C9.32 9.96 9.17 9.89 9.02 9.8C9.02 9.84 9.02 9.86 9.02 9.88C9.02 9.9 9.04 9.93 9.01 9.94C8.79 9.64 8.6 9.33 8.47 8.99C8.32 8.61 8.21 8.22 8.19 7.82C8.23 7.85 8.24 7.92 8.3 7.95C8.3 7.94 8.31 7.93 8.31 7.92C8.42 7.5 8.58 7.1 8.8 6.72C8.81 6.7 8.82 6.67 8.81 6.64C8.79 6.14 8.91 5.67 9.11 5.21C9.18 5.06 9.17 5.05 9.01 5C9.01 4.99 9 5 8.99 4.99C8.99 4.96 9.01 4.93 9.04 4.92C9.08 4.95 9.13 4.97 9.17 4.99C9.2 5.02 9.23 5.01 9.26 4.99C9.65 4.66 10.09 4.44 10.58 4.31C10.62 4.29 10.66 4.27 10.7 4.24C10.99 3.98 11.29 3.75 11.62 3.54C11.67 3.51 11.72 3.48 11.77 3.45C11.74 3.4 11.68 3.41 11.65 3.37C11.75 3.35 11.85 3.36 11.95 3.32L11.95 3.32ZM12.53 5.55C12.8 5.6 13.07 5.64 13.34 5.68C13.39 5.69 13.42 5.68 13.45 5.64C13.56 5.48 13.68 5.34 13.82 5.21C14 5.04 14.2 4.9 14.4 4.76C14.44 4.73 14.4 4.71 14.39 4.7C14.18 4.33 13.93 4 13.62 3.7C13.6 3.68 13.57 3.66 13.53 3.65C13.01 3.52 12.49 3.44 11.95 3.46C11.9 3.46 11.86 3.47 11.81 3.49C11.44 3.71 11.09 3.96 10.77 4.25C10.73 4.29 10.73 4.31 10.76 4.36C11.01 4.67 11.2 5.01 11.35 5.38C11.37 5.42 11.39 5.44 11.44 5.45C11.8 5.47 12.17 5.51 12.53 5.55ZM14.05 7.3C14.03 7.26 14.02 7.21 14 7.17C13.81 6.72 13.62 6.28 13.44 5.83C13.41 5.76 13.38 5.74 13.32 5.73C13.05 5.69 12.79 5.66 12.52 5.62C12.17 5.57 11.81 5.53 11.45 5.5C11.39 5.5 11.35 5.52 11.32 5.56C10.95 6.04 10.58 6.51 10.21 6.99C10.17 7.04 10.16 7.08 10.19 7.14C10.41 7.73 10.66 8.31 10.93 8.88C10.95 8.94 10.99 8.95 11.04 8.96C11.6 9.03 12.16 9.1 12.72 9.19C12.87 9.21 12.95 9.17 13.04 9.06C13.42 8.58 13.78 8.1 14.11 7.59C14.13 7.56 14.16 7.53 14.14 7.49C14.11 7.43 14.08 7.36 14.05 7.3ZM13.61 10.61C14.01 10.61 14.39 10.56 14.77 10.45C14.81 10.44 14.85 10.42 14.87 10.4C15.2 10.07 15.48 9.71 15.73 9.33C15.86 9.14 15.92 8.95 15.87 8.71C15.79 8.37 15.75 8.02 15.64 7.69C15.62 7.62 15.59 7.6 15.52 7.61C15.09 7.68 14.67 7.68 14.25 7.57C14.21 7.56 14.19 7.57 14.16 7.61C14.13 7.67 14.08 7.73 14.04 7.79C13.72 8.28 13.37 8.75 13 9.2C12.98 9.23 12.94 9.25 12.97 9.3C13.15 9.65 13.25 10.02 13.33 10.39C13.35 10.47 13.33 10.57 13.39 10.6C13.44 10.64 13.54 10.61 13.61 10.61ZM8.35 8.07C8.35 8.1 8.36 8.13 8.37 8.17C8.47 8.68 8.69 9.15 8.95 9.6C9 9.69 9.07 9.75 9.16 9.8C9.49 9.99 9.85 10.08 10.22 10.17C10.28 10.18 10.29 10.15 10.3 10.11C10.4 9.71 10.59 9.36 10.85 9.04C10.89 8.99 10.9 8.95 10.87 8.88C10.6 8.32 10.35 7.75 10.14 7.16C10.11 7.09 10.07 7.07 10 7.06C9.63 7.03 9.27 6.95 8.93 6.78C8.87 6.75 8.85 6.77 8.82 6.82C8.68 7.07 8.57 7.33 8.48 7.6C8.42 7.75 8.38 7.91 8.35 8.07L8.35 8.07Z" fill="#10141C" fill-opacity="1.000000" fill-rule="nonzero"/>
	<path id="Vector" d="M6.64 10.48C5.32 6.96 7.07 3.15 10.56 1.82C11.4 1.5 12.27 1.36 13.12 1.39C12.33 1.22 11.49 1.21 10.65 1.37C10.51 1.4 10.39 1.46 10.24 1.45L9.23 1.83C9.04 1.99 8.81 2.08 8.61 2.2C7.5 2.91 6.7 3.88 6.2 5.1C6.02 5.54 5.9 5.99 5.83 6.46C5.47 8.73 5.11 11 4.75 13.27C4.61 14.15 4.46 15.03 4.33 15.92C4.27 16.3 4.52 16.58 4.88 16.55C5.03 16.53 5.16 16.45 5.24 16.32C5.66 15.67 6.12 15.04 6.51 14.37C6.53 14.33 6.57 14.31 6.63 14.29C6.12 16.63 5.62 18.97 5.11 21.31L5.21 21.57C5.22 21.57 5.24 21.57 5.25 21.58C5.55 21.85 5.85 21.82 6.09 21.5C6.53 20.9 6.97 20.29 7.41 19.69C8.3 18.47 9.18 17.26 10.07 16.04C10.1 16 10.14 15.96 10.17 15.92C10.18 15.91 10.2 15.89 10.2 15.9C10.22 15.91 10.21 15.92 10.2 15.94C10.04 16.54 9.88 17.15 9.73 17.76C9.68 17.93 9.63 18.11 9.59 18.28C9.53 18.53 9.63 18.74 9.84 18.86C10.05 18.97 10.3 18.93 10.46 18.74C10.98 18.11 11.49 17.47 12.01 16.83C12.53 16.2 13.05 15.58 13.56 14.95C13.61 14.9 13.65 14.85 13.69 14.8C10.75 15.13 7.76 13.48 6.64 10.48L6.64 10.48Z" fill="#FF2742" fill-opacity="1.000000" fill-rule="nonzero"/>
	<path id="Vector" d="M17.29 7.38C17.29 4.57 15.01 2.29 12.2 2.29C9.39 2.29 7.12 4.57 7.12 7.38C7.12 10.19 9.39 12.47 12.2 12.47C15.01 12.47 17.29 10.19 17.29 7.38Z" stroke="#FFFFFF" stroke-opacity="1.000000" stroke-width="1.000000"/>
	<path id="Vector" d="M17.98 7.04C17.81 4.12 15.71 1.93 13.12 1.39C12.27 1.36 11.4 1.5 10.56 1.82C7.07 3.15 5.32 6.96 6.64 10.48C7.76 13.48 10.75 15.13 13.69 14.8C14.66 13.62 15.65 12.43 16.61 11.23C17.59 10.01 18.06 8.61 17.98 7.04ZM7.09 9.18C6.09 6.55 7.41 3.61 10.03 2.61C12.66 1.62 15.6 2.94 16.59 5.56C17.59 8.19 16.27 11.12 13.65 12.12C11.02 13.12 8.08 11.8 7.09 9.18Z" fill="#FFA300" fill-opacity="1.000000" fill-rule="nonzero"/>
	<path id="Vector" d="M12.19 2C9.19 2 6.75 4.44 6.75 7.44C6.75 10.44 9.19 12.87 12.19 12.87C15.19 12.87 17.62 10.44 17.62 7.44C17.62 4.44 15.19 2 12.19 2ZM12.2 11.8C9.86 11.79 7.86 9.88 7.88 7.43C7.89 5 9.82 3.1 12.24 3.1C14.63 3.09 16.59 5.07 16.58 7.47C16.56 9.9 14.6 11.81 12.2 11.8Z" fill="url(#paint_linear_2_8941_0)" fill-opacity="1.000000" fill-rule="nonzero"/>
</svg>
