<svg width="22.000000" height="22.000000" viewBox="0 0 22 22" fill="none" xmlns="http://www.w3.org/2000/svg" xmlns:xlink="http://www.w3.org/1999/xlink">
	<desc>
			Created with Pixso.
	</desc>
	<defs>
		<clipPath id="clip2_8943">
			<rect id="Property 1=event (1)" width="22.000000" height="22.000000" transform="translate(-0.250000 0.000000)" fill="white" fill-opacity="0"/>
		</clipPath>
		<linearGradient id="paint_linear_2_8944_0" x1="2.832578" y1="5.838374" x2="10.471562" y2="5.838374" gradientUnits="userSpaceOnUse">
			<stop stop-color="#5034FF"/>
			<stop offset="1.000000" stop-color="#35E1AD"/>
		</linearGradient>
		<linearGradient id="paint_linear_2_8945_0" x1="11.082578" y1="5.839261" x2="18.721561" y2="5.839261" gradientUnits="userSpaceOnUse">
			<stop stop-color="#5034FF"/>
			<stop offset="1.000000" stop-color="#35E1AD"/>
		</linearGradient>
		<linearGradient id="paint_linear_2_8946_0" x1="7.804655" y1="4.864425" x2="13.742438" y2="4.864425" gradientUnits="userSpaceOnUse">
			<stop stop-color="#5034FF"/>
			<stop offset="1.000000" stop-color="#35E1AD"/>
		</linearGradient>
		<linearGradient id="paint_linear_2_8947_0" x1="9.006690" y1="4.581532" x2="12.513747" y2="4.581532" gradientUnits="userSpaceOnUse">
			<stop stop-color="#5034FF"/>
			<stop offset="1.000000" stop-color="#35E1AD"/>
		</linearGradient>
		<linearGradient id="paint_linear_2_8948_0" x1="9.006690" y1="4.581532" x2="12.513747" y2="4.581532" gradientUnits="userSpaceOnUse">
			<stop stop-color="#5034FF"/>
			<stop offset="1.000000" stop-color="#35E1AD"/>
		</linearGradient>
	</defs>
	<rect id="Property 1=event (1)" width="22.000000" height="22.000000" transform="translate(-0.250000 0.000000)" fill="#FFFFFF" fill-opacity="0"/>
	<g clip-path="url(#clip2_8943)">
		<path id="Vector" d="M7.54 10.37L7.54 3.2L6.16 3.2L6.16 5.04L4.33 5.04C3.32 5.04 2.5 5.86 2.5 6.87L2.5 7.79C2.5 10.12 4.26 12.03 6.52 12.31C6.81 13 7.26 13.6 7.84 14.08C8.41 14.55 9.1 14.88 9.83 15.03L9.83 17.87L6.16 17.87L6.16 19.7L10.75 19.7L10.75 13.58C8.97 13.58 7.54 12.14 7.54 10.36L7.54 10.37ZM6.16 10.37C5.1 9.99 4.33 8.98 4.33 7.79L4.33 6.87L6.16 6.87L6.16 10.38L6.16 10.37Z" fill="url(#paint_linear_2_8944_0)" fill-opacity="1.000000" fill-rule="nonzero"/>
		<path id="Vector" d="M17.16 5.04L15.33 5.04L15.33 3.2L13.95 3.2L13.95 10.37C13.95 12.14 12.52 13.58 10.75 13.58L10.75 19.7L15.33 19.7L15.33 17.87L11.66 17.87L11.66 15.03C12.39 14.88 13.08 14.56 13.65 14.08C14.23 13.61 14.68 13.01 14.97 12.32C17.23 12.03 19 10.13 19 7.79L19 6.88C19 5.87 18.17 5.04 17.16 5.04L17.16 5.04ZM17.16 7.79C17.16 8.98 16.39 9.99 15.33 10.37L15.33 6.87L17.16 6.87L17.16 7.79Z" fill="url(#paint_linear_2_8945_0)" fill-opacity="1.000000" fill-rule="nonzero"/>
		<path id="Vector" d="M10.74 13.58C12.52 13.58 13.95 12.14 13.95 10.36L13.95 3.21L12.64 3.21L12.64 9.91C12.64 10.96 11.79 11.81 10.75 11.81C9.7 11.81 8.86 10.96 8.86 9.91L8.86 3.21L7.54 3.21L7.54 10.37C7.54 12.14 8.98 13.58 10.75 13.58L10.74 13.58Z" fill="url(#paint_linear_2_8946_0)" fill-opacity="1.000000" fill-rule="nonzero"/>
		<path id="Vector" d="M8.85 9.91C8.85 10.96 9.7 11.81 10.74 11.81C11.79 11.81 12.64 10.96 12.64 9.91L12.64 3.21L8.85 3.21L8.85 9.91L8.85 9.91Z" fill="url(#paint_linear_2_8947_0)" fill-opacity="1.000000" fill-rule="nonzero"/>
		<path id="Vector" d="M8.85 9.91C8.85 10.96 9.7 11.81 10.74 11.81C11.79 11.81 12.64 10.96 12.64 9.91L12.64 3.21L8.85 3.21L8.85 9.91L8.85 9.91Z" fill="url(#paint_linear_2_8948_0)" fill-opacity="1.000000" fill-rule="nonzero"/>
		<path id="Vector" d="M8.85 9.91C8.85 10.96 9.7 11.81 10.74 11.81C11.79 11.81 12.64 10.96 12.64 9.91L12.64 3.21L8.85 3.21L8.85 9.91L8.85 9.91Z" fill="#E9E9EB" fill-opacity="1.000000" fill-rule="nonzero"/>
		<path id="Vector" d="M8.85 9.91L8.85 3.2L7.54 3.2L7.54 10.37C7.54 12.14 8.97 13.58 10.75 13.58L10.75 11.81C9.7 11.81 8.86 10.96 8.86 9.91L8.85 9.91Z" fill="#E9E9EB" fill-opacity="1.000000" fill-rule="nonzero"/>
		<path id="Vector" d="M12.64 3.2L12.64 9.91C12.64 10.96 11.79 11.81 10.75 11.81L10.75 13.58C12.52 13.58 13.96 12.14 13.96 10.36L13.96 3.2L12.64 3.2L12.64 3.2Z" fill="#E9E9EB" fill-opacity="1.000000" fill-rule="nonzero"/>
	</g>
</svg>
