<svg width="19.000000" height="16.000000" viewBox="0 0 19 16" fill="none" xmlns="http://www.w3.org/2000/svg" xmlns:xlink="http://www.w3.org/1999/xlink">
	<desc>
			Created with Pixso.
	</desc>
	<defs/>
	<path id="_x30_4.Twitter" d="M18.47 1.79C17.75 2.1 17.01 2.31 16.21 2.41C17.03 1.93 17.66 1.16 17.94 0.23C17.18 0.68 16.34 0.99 15.45 1.19C14.73 0.42 13.7 -0.06 12.57 -0.06C10.38 -0.06 8.63 1.71 8.63 3.87C8.63 4.19 8.66 4.47 8.73 4.76C5.46 4.62 2.58 3.03 0.64 0.66C-0.75 3.15 0.81 5.22 1.84 5.91C1.21 5.91 0.59 5.72 0.06 5.43C0.06 7.38 1.43 8.99 3.21 9.35C2.82 9.47 1.96 9.54 1.43 9.42C1.93 10.98 3.4 12.13 5.1 12.15C3.76 13.21 1.79 14.05 -0.73 13.79C1.02 14.91 3.09 15.56 5.32 15.56C12.57 15.56 16.5 9.56 16.5 4.38C16.5 4.21 16.5 4.04 16.48 3.87C17.29 3.27 17.97 2.58 18.47 1.79Z" fill="#FFFFFF" fill-opacity="1.000000" fill-rule="nonzero"/>
</svg>
