<svg width="16.000000" height="16.000000" viewBox="0 0 16 16" fill="none" xmlns="http://www.w3.org/2000/svg" xmlns:xlink="http://www.w3.org/1999/xlink">
	<desc>
			Created with Pixso.
	</desc>
	<defs>
		<clipPath id="clip2_9457">
			<rect id="group 1" width="16.000000" height="16.000000" fill="white" fill-opacity="0"/>
		</clipPath>
		<clipPath id="clip2_9458">
			<rect id="Icon-set" width="16.000000" height="16.000000" fill="white" fill-opacity="0"/>
		</clipPath>
	</defs>
	<rect id="Icon-set" width="16.000000" height="16.000000" fill="#FFFFFF" fill-opacity="0"/>
	<g clip-path="url(#clip2_9458)">
		<rect id="group 1" width="16.000000" height="16.000000" fill="#FFFFFF" fill-opacity="0"/>
		<g clip-path="url(#clip2_9457)">
			<path id="Vector" d="M13.69 8.54L12.45 8.54C12.57 8.88 12.64 9.25 12.64 9.64L12.64 14.32C12.64 14.48 12.61 14.64 12.56 14.78L14.61 14.78C15.37 14.78 16 14.16 16 13.4L16 10.85C16 9.57 14.96 8.54 13.69 8.54Z" fill="#747888" fill-opacity="1.000000" fill-rule="nonzero"/>
			<path id="Vector" d="M3.35 9.64C3.35 9.25 3.42 8.88 3.54 8.54L2.3 8.54C1.03 8.54 0 9.57 0 10.85L0 13.4C0 14.16 0.62 14.78 1.38 14.78L3.43 14.78C3.38 14.64 3.35 14.48 3.35 14.32L3.35 9.64Z" fill="#747888" fill-opacity="1.000000" fill-rule="nonzero"/>
			<path id="Vector" d="M9.41 7.33L6.58 7.33C5.31 7.33 4.27 8.37 4.27 9.64L4.27 14.32C4.27 14.57 4.48 14.78 4.73 14.78L11.26 14.78C11.51 14.78 11.72 14.57 11.72 14.32L11.72 9.64C11.72 8.37 10.68 7.33 9.41 7.33Z" fill="#747888" fill-opacity="1.000000" fill-rule="nonzero"/>
			<path id="Vector" d="M8 1.21C6.46 1.21 5.22 2.45 5.22 3.99C5.22 5.03 5.79 5.93 6.64 6.41C7.04 6.64 7.5 6.76 8 6.76C8.49 6.76 8.95 6.64 9.35 6.41C10.2 5.93 10.77 5.03 10.77 3.99C10.77 2.45 9.53 1.21 8 1.21Z" fill="#747888" fill-opacity="1.000000" fill-rule="nonzero"/>
			<path id="Vector" d="M3.12 3.8C1.97 3.8 1.04 4.73 1.04 5.88C1.04 7.02 1.97 7.95 3.12 7.95C3.41 7.95 3.68 7.89 3.94 7.78C4.37 7.6 4.73 7.27 4.95 6.85C5.11 6.56 5.19 6.23 5.19 5.88C5.19 4.73 4.26 3.8 3.12 3.8Z" fill="#747888" fill-opacity="1.000000" fill-rule="nonzero"/>
			<path id="Vector" d="M12.87 3.8C11.73 3.8 10.8 4.73 10.8 5.88C10.8 6.23 10.88 6.56 11.04 6.85C11.26 7.27 11.62 7.6 12.05 7.78C12.31 7.89 12.58 7.95 12.87 7.95C14.02 7.95 14.95 7.02 14.95 5.88C14.95 4.73 14.02 3.8 12.87 3.8Z" fill="#747888" fill-opacity="1.000000" fill-rule="nonzero"/>
		</g>
	</g>
</svg>
