<svg width="20.000000" height="20.000000" viewBox="0 0 20 20" fill="none" xmlns="http://www.w3.org/2000/svg" xmlns:xlink="http://www.w3.org/1999/xlink">
	<desc>
			Created with Pixso.
	</desc>
	<defs>
		<clipPath id="clip4_13698">
			<rect id="match-tips" width="20.000000" height="20.000000" fill="white" fill-opacity="0"/>
		</clipPath>
	</defs>
	<rect id="match-tips" width="20.000000" height="20.000000" fill="#FFFFFF" fill-opacity="0"/>
	<g clip-path="url(#clip4_13698)">
		<path id="Vector" d="M10 1.66C5.4 1.66 1.66 5.4 1.66 9.99C1.66 14.59 5.4 18.33 10 18.33C14.59 18.33 18.33 14.59 18.33 9.99C18.33 5.4 14.59 1.66 10 1.66ZM10 16.66C6.32 16.66 3.33 13.67 3.33 9.99C3.33 6.32 6.32 3.33 10 3.33C13.67 3.33 16.66 6.32 16.66 9.99C16.66 13.67 13.67 16.66 10 16.66Z" fill="#FFCC00" fill-opacity="1.000000" fill-rule="nonzero"/>
		<path id="Vector" d="M10 5.83C9.53 5.83 9.16 6.2 9.16 6.66L9.16 10.83C9.16 11.29 9.53 11.66 10 11.66C10.46 11.66 10.83 11.29 10.83 10.83L10.83 6.66C10.83 6.2 10.46 5.83 10 5.83Z" fill="#FFCC00" fill-opacity="1.000000" fill-rule="nonzero"/>
		<path id="Vector" d="M10 12.5C9.78 12.5 9.56 12.59 9.4 12.74C9.25 12.9 9.16 13.11 9.16 13.33C9.16 13.55 9.25 13.76 9.4 13.92C9.72 14.23 10.27 14.23 10.59 13.92C10.74 13.76 10.83 13.55 10.83 13.33C10.83 13.11 10.74 12.9 10.59 12.74C10.43 12.59 10.21 12.5 10 12.5Z" fill="#FFCC00" fill-opacity="1.000000" fill-rule="nonzero"/>
	</g>
</svg>
